<?xml version="1.0" encoding="utf-8"?>
<!-- Generator: Adobe Illustrator 24.2.1, SVG Export Plug-In . SVG Version: 6.00 Build 0)  -->
<svg version="1.1" id="Слой_1" xmlns="http://www.w3.org/2000/svg" xmlns:xlink="http://www.w3.org/1999/xlink" x="0px" y="0px"
	 viewBox="0 0 348 308" style="enable-background:new 0 0 348 308;" xml:space="preserve">
<style type="text/css">
	.st0{fill:#FFBE64;}
	.st1{fill:#22D172;}
	.st2{fill:#FFBE64;stroke:#1A2E44;stroke-width:1.2741;stroke-linecap:round;stroke-linejoin:round;stroke-miterlimit:10;}
	.st3{fill:#FFFFFF;stroke:#1A2E44;stroke-width:1.5468;stroke-linecap:round;stroke-linejoin:round;stroke-miterlimit:10;}
	.st4{fill:#FFFFFF;}
	.st5{fill:none;stroke:#1A2E44;stroke-width:0.5156;stroke-linecap:round;stroke-linejoin:round;stroke-miterlimit:10;}
	.st6{fill:#1A2E44;}
	.st7{fill:none;stroke:#1A2E44;stroke-width:0.21;stroke-linecap:round;stroke-linejoin:round;stroke-miterlimit:10;}
	.st8{fill:#DBDEE0;}
	.st9{fill:none;stroke:#1A2E44;stroke-width:0.5156;stroke-miterlimit:10;}
	.st10{fill:#FFFFFF;stroke:#1A2E44;stroke-width:1.2741;stroke-linecap:round;stroke-linejoin:round;stroke-miterlimit:10;}
	.st11{fill:none;stroke:#1A2E44;stroke-width:1.2741;stroke-linecap:round;stroke-linejoin:round;stroke-miterlimit:10;}
	.st12{fill:#1A2E44;stroke:#1A2E44;stroke-width:1.3534;stroke-linecap:round;stroke-linejoin:round;stroke-miterlimit:10;}
	.st13{fill:#FEFEFE;stroke:#1A2E44;stroke-width:1.3534;stroke-linecap:round;stroke-linejoin:round;stroke-miterlimit:10;}
	.st14{fill:#FEFEFE;}
	.st15{fill:#263E57;}
	.st16{fill:#1A2E44;stroke:#1A2E44;stroke-width:0.618;stroke-miterlimit:10;}
	.st17{fill:#1A2E44;stroke:#1A2E44;stroke-width:0.7215;stroke-miterlimit:10;}
	.st18{fill:#FFFFFF;stroke:#1A2E44;stroke-width:1.2156;stroke-miterlimit:10;}
	.st19{fill:none;stroke:#1A2E44;stroke-width:1.2156;stroke-miterlimit:10;}
	
		.st20{fill:none;stroke:#1A2E44;stroke-width:1.2156;stroke-linecap:round;stroke-linejoin:round;stroke-miterlimit:10;stroke-dasharray:4.9917;}
	
		.st21{fill:none;stroke:#1A2E44;stroke-width:1.5468;stroke-linecap:round;stroke-linejoin:round;stroke-miterlimit:10;stroke-dasharray:4.9917;}
	.st22{fill:#ADCDFF;}
	.st23{fill:#1A2E44;stroke:#1A2E44;stroke-width:0.8104;stroke-linecap:round;stroke-linejoin:round;stroke-miterlimit:10;}
	.st24{fill:#FFFFFF;stroke:#1A2E44;stroke-width:0.8104;stroke-linecap:round;stroke-linejoin:round;stroke-miterlimit:10;}
	.st25{fill:#1A2E44;stroke:#1A2E44;stroke-width:0.4052;stroke-linecap:round;stroke-linejoin:round;stroke-miterlimit:10;}
	.st26{fill:#1A2E44;stroke:#1A2E44;stroke-width:0.5156;stroke-linecap:round;stroke-linejoin:round;stroke-miterlimit:10;}
	.st27{fill:none;stroke:#1A2E44;stroke-width:1.2593;stroke-linecap:round;stroke-linejoin:round;stroke-miterlimit:10;}
	.st28{fill:none;stroke:#1A2E44;stroke-width:1.013;stroke-linecap:round;stroke-linejoin:round;stroke-miterlimit:10;}
	.st29{fill:#FFFFFF;stroke:#1A2E44;stroke-width:0.9141;stroke-linecap:round;stroke-linejoin:round;stroke-miterlimit:10;}
	.st30{fill:#FFFFFF;stroke:#1A2E44;stroke-width:1.1263;stroke-linecap:round;stroke-linejoin:round;stroke-miterlimit:10;}
	.st31{fill:#FFFFFF;stroke:#1A2E44;stroke-width:1.37;stroke-linecap:round;stroke-linejoin:round;stroke-miterlimit:10;}
	.st32{fill:#FFFFFF;stroke:#1A2E44;stroke-width:1.2588;stroke-linecap:round;stroke-linejoin:round;stroke-miterlimit:10;}
	.st33{fill:#FFFFFF;stroke:#263E57;stroke-width:0.8293;stroke-linecap:round;stroke-linejoin:round;}
</style>
<g>
	<path class="st0" d="M277.2,65.6c9.7-3.8,28.1-3.5,37,1.2c16.5,8.6,28,28.3,26.8,44.1c-0.8,10-5.9,21.7-13.3,29.7
		c-4.1,4.4-8.8,7.8-13.9,9.2c-30.2,8.3-65.7-7.9-72.1-29.3C235.4,99.1,245.3,78,277.2,65.6z"/>
	<path class="st1" d="M256.9,194.2c-4.1,23.2-23,39.6-48.1,49.8c-46.1,18.7-113.1,15.8-146.9-6.7c-21.4-14.2-39.6-38.5-46-62.2
		c-3.5-13-3.5-25.9,1.6-36.9C47.4,72.9,141.2,29.6,200,45.6C258.7,61.5,271.1,114.4,256.9,194.2z"/>
	<path class="st2" d="M208.8,244c-46.1,18.7-113.1,15.8-146.9-6.7c-21.4-14.2-39.6-38.5-46-62.2L208.8,244z"/>
	<path class="st3" d="M45.2,31.2l99.6,21.1c3.1,0.7,5.4,3.4,5.4,6.6v72.7c0,3.3-3.1,5.7-6.3,4.9l-99.7-25.2c-3-0.8-5.1-3.5-5.1-6.6
		V36.1C39.2,32.9,42.1,30.5,45.2,31.2z"/>
	<g>
		<path class="st4" d="M142.1,86.2c0,0,0.5,1.5-0.3,1.9l-0.9,0.3l-0.3,6l-47,14.4L44.6,77.7l0-1.4L44,73.7l-1.1-0.5l0.1-2.3l50-5.1
			L142.1,86.2z"/>
		<line class="st5" x1="92.9" y1="65.7" x2="142.1" y2="86.2"/>
		<path class="st6" d="M93.4,104.6c0,0-24.9-14.1-31.9-20.1l31.1,18.9l0.7,0.4L93.4,104.6z"/>
		<polyline class="st5" points="92.8,67.7 92.9,65.7 42.9,70.6 		"/>
		<path class="st7" d="M133,84.7c-0.2-0.1-40.2-16.9-40.2-16.9"/>
		<path class="st7" d="M111,77.4c0,0,13.7,4.9,19.6,8"/>
		<g>
			<polyline class="st4" points="133,84.7 93.7,97 51.6,72.1 92.8,67.7 			"/>
			<path class="st6" d="M133.1,84.9c-1.6,0.8-3.2,1.2-4.8,1.7l-4.9,1.5l-9.8,3l-9.8,3l-9.8,3c-0.1,0-0.2,0-0.2,0L51.4,72.4
				c-0.1-0.1-0.2-0.3-0.1-0.4c0-0.1,0.1-0.1,0.2-0.1c6.9-0.8,13.7-1.6,20.6-2.3l10.3-1.1c3.4-0.4,6.9-0.7,10.3-1
				c0.2,0,0.3,0.1,0.3,0.3c0,0.2-0.1,0.3-0.2,0.3c-3.4,0.5-6.9,0.9-10.3,1.2l-10.3,1.1c-6.9,0.7-13.8,1.4-20.6,2.1l0.1-0.5
				l42.1,24.9l-0.2,0l9.8-3.2l9.8-3.1l9.8-3.1l4.9-1.6c1.6-0.5,3.3-1.1,5-1.3c0.2,0,0.3,0.1,0.3,0.3
				C133.2,84.8,133.2,84.9,133.1,84.9z"/>
		</g>
		<path class="st8" d="M93.7,96.9l38-12.1l-20.8-9.4l-14.1-6.1c0,0-22.3,2.9-26.4,4.2c-5.8,1.9-12.1,2.2-12.1,2.2L93.7,96.9z"/>
		<path class="st6" d="M93.6,105.7c-0.1-0.4-0.1-0.8-0.2-1.1c-0.1-0.4-0.2-0.8-0.2-1.1c0-0.1-0.1-0.1-0.2-0.1
			c-0.1,0-0.1,0.1-0.1,0.2c0,0.4,0.1,0.7,0.2,1.1c0.1,0.4,0.1,0.8,0.2,1.2c0.1,0.8,0.2,1.6,0.2,2.4c0,0.1,0.1,0.1,0.2,0.1
			c0.1,0,0.1-0.1,0.1-0.2C93.8,107.3,93.7,106.5,93.6,105.7z"/>
		<path class="st6" d="M141,89.3c0-0.1,0-0.3,0-0.3c-0.1-0.1-0.1-0.1-0.2,0c-0.1,0.1-0.1,0.1-0.1,0.2c0,0,0,0.1,0,0.1
			c0,0.7,0,1.4-0.1,2.1c0,0.3-0.1,0.7-0.1,1c0,0.3,0,0.7-0.1,1c0,0.1,0,0.2,0.1,0.2c0.1,0,0.2-0.1,0.2-0.1c0.1-0.4,0.1-0.8,0.2-1.2
			c0-0.4,0.1-0.9,0.1-1.3c0-0.4,0.1-0.9,0.1-1.3C141,89.5,141,89.4,141,89.3z"/>
		<g>
			<path class="st6" d="M92.9,100.5C92.9,100.5,92.9,100.5,92.9,100.5c0.1,0,0.2,0,0.2,0.1c0.1,0.1,0,0.1,0,0.1l0,0.1l0,0.1l0,0.2
				l0,0.4c0,0.2,0,0.5,0,0.7c0,0.5-0.1,1-0.1,1.5l0,0c0,0.1-0.1,0.2-0.2,0.2c0,0-0.1,0-0.1,0l0,0c-4.3-2.3-8.6-4.7-12.8-7.1
				c-4.2-2.4-8.5-4.9-12.5-7.7c-4-2.8-8-5.6-12.1-8.3c-4.1-2.6-8.2-5.3-12.6-7.3c-0.1,0-0.1-0.1-0.1-0.2l0.1-2.6l0,0
				c0-0.1,0.1-0.2,0.2-0.2c0,0,0.1,0,0.1,0l0,0c8.4,4.9,16.7,9.8,25,14.8l12.4,7.5l6.2,3.8C88.7,97.7,90.8,99,92.9,100.5z M93,100.9
				c-2-1-4.1-2.2-6.2-3.4l-6.3-3.8l-12.6-7.6c-8.4-5.1-16.8-10.2-25-15.4l0.3-0.2l0,0l-0.1,2.6L43,73c4.4,2.1,8.6,4.7,12.7,7.4
				c4.1,2.7,8.1,5.5,12.1,8.3c4,2.8,8.2,5.3,12.4,7.7c4.2,2.4,8.5,4.8,12.8,7.1l0,0l-0.3,0.2c0-0.5,0-1,0-1.5l0-0.7l0-0.4l0-0.2
				l0-0.1c0,0,0,0,0,0l0,0C92.8,100.9,92.9,100.9,93,100.9C93,100.9,93,100.9,93,100.9z"/>
		</g>
		<g>
			<path class="st6" d="M92.8,103.3c0.9-0.7,2.1-0.9,3.1-1.2l3.2-1l6.4-2l12.7-4l12.7-4l6.4-2c1.1-0.3,2.1-0.6,3.2-0.9l0.8-0.2
				l0.3-0.1c0,0,0.1-0.1,0.2-0.2c0.2-0.4,0.2-0.9,0-1.4l0.3,0.1l-24.5,7.3l-12.3,3.7l-6.1,1.8l-3.1,0.9c-1,0.3-2,0.6-3.1,0.8
				c-0.1,0-0.3-0.1-0.3-0.2c0-0.1,0-0.2,0.2-0.3c1-0.4,2-0.7,3-1l3.1-0.9l6.1-1.8l12.3-3.6l24.6-7.2l0,0c0.1,0,0.3,0,0.3,0.2
				c0.2,0.6,0.3,1.3-0.1,1.9c-0.1,0.1-0.1,0.3-0.4,0.4c-0.2,0.1-0.3,0.1-0.4,0.2l-0.8,0.3c-1,0.4-2.1,0.8-3.1,1.1l-6.3,2L118.5,96
				l-12.7,4l-6.4,2l-3.2,1c-1.1,0.3-2.1,0.8-3.3,0.8c-0.2,0-0.3-0.1-0.3-0.3C92.7,103.5,92.7,103.4,92.8,103.3z"/>
		</g>
		<path class="st6" d="M93.5,108.2l47.2-14.7c0,0,3.4-0.4,3.6,0.9c0.2,1.3-48.2,16.4-49.2,16.2c-1-0.3-50.4-32.9-50.4-32.9
			L93.5,108.2z"/>
		<path class="st9" d="M44.3,73.8c0,0,0.5,2.2,0.4,3.5c0,0.2,0.1,0.4,0.3,0.5l25.8,16.4"/>
		<path class="st6" d="M96.4,102.5c0,0,44.9-14.9,44.5-11.5l-0.1-2.6L96.4,102.5z"/>
		<g>
			<path class="st4" d="M102.1,82.7c-2-0.8-5.2-5.2-5.2-5.2s-4.4-4.4-4.4-4.9c0.1-0.5,8.4-9.2,15.2-12.9l5.5,2.7
				c0,0,5.6,6.5,6.1,8.4s-0.8,3.9-0.8,3.9s-6.4,4.9-8.9,6.6S104.1,83.5,102.1,82.7z"/>
			<path class="st6" d="M100.9,81.8c-0.2-0.1-0.4-0.3-0.6-0.5c-0.2-0.3-0.4-0.5-0.7-0.8c-0.6-0.6-1.2-1.3-1.8-1.9
				c-1.2-1.3-2.3-2.8-3.4-4.2c-0.6-0.7-1.3-1.4-1.7-2.3c-0.1-0.2-0.2-0.2-0.4-0.1c-0.1,0.1-0.1,0.3-0.1,0.5c0.3,0.8,1,1.4,1.5,2.1
				c0.6,0.7,1.2,1.5,1.7,2.2c0.6,0.7,1.2,1.4,1.8,2.1c0.6,0.7,1.2,1.4,1.8,2c0.3,0.3,0.5,0.6,0.8,0.9c0.2,0.2,0.4,0.5,0.8,0.6
				C101.2,82.6,101.3,81.9,100.9,81.8z"/>
			<path class="st6" d="M106.7,60.1c-2.2,1.2-4.2,2.7-6.1,4.2c-1.9,1.5-3.8,3.1-5.5,4.8c-0.5,0.5-0.9,0.9-1.4,1.4
				c-0.2,0.2-0.4,0.5-0.6,0.8c-0.2,0.3-0.3,0.5-0.6,0.7c-0.1,0.1-0.2,0.3-0.1,0.5c0.1,0.2,0.2,0.2,0.4,0.1c0.4-0.4,0.6-0.9,1-1.3
				c0.4-0.4,0.8-0.9,1.2-1.3c0.8-0.8,1.7-1.7,2.6-2.4c1.8-1.6,3.8-3.1,5.7-4.5c1-0.7,2.1-1.4,3.2-2.1c0.1,0.1,0.2,0,0.3-0.1
				c0-0.1,0.1-0.2,0.1-0.3C107.1,60.4,107,59.9,106.7,60.1z"/>
			<path class="st6" d="M119.4,69.8c-0.3-0.5-0.6-0.9-1-1.4c-0.7-0.9-1.4-1.7-2.1-2.6c-0.8-1-1.6-1.9-2.3-2.9
				c-0.1-0.2-0.3-0.1-0.4,0c-0.1,0.1-0.1,0.3,0,0.5c1.2,1.7,2.7,3.2,4,4.9c0.3,0.4,0.6,0.8,0.9,1.2c0.3,0.4,0.6,0.8,0.8,1.3
				c0.3,0.6,0.3,1.1,0.1,1.6c-0.3,0.6-0.7,1.2-1,1.8c-0.1,0.1,0,0.4,0.1,0.5c0.2,0.1,0.3,0,0.3-0.2c0.5-1.1,1.6-2.1,1.1-3.6
				C119.9,70.6,119.7,70.2,119.4,69.8z"/>
			<path class="st6" d="M119.7,69.7c-0.3-0.5-0.6-0.9-1-1.4c-0.7-0.9-1.4-1.7-2.1-2.6c-0.8-1-1.6-1.9-2.3-2.9
				c-0.1-0.2-0.3-0.1-0.4,0c-0.1,0.1-0.1,0.3,0,0.5c1.2,1.7,2.7,3.2,4,4.9c0.3,0.4,0.6,0.8,0.9,1.2c0.3,0.4,0.6,0.8,0.8,1.3
				c0.3,0.6,0.3,1.1,0.1,1.6c-0.3,0.6-0.7,1.2-1,1.8c-0.1,0.1,0,0.4,0.1,0.5c0.2,0.1,0.3,0,0.3-0.2c0.5-1.1,1.6-2.1,1.1-3.6
				C120.2,70.4,120,70.1,119.7,69.7z"/>
			<path class="st6" d="M109.1,61.2c-0.2,0.1-0.2,0.3-0.2,0.5c0.1,0.4,0,0.8,0,1.2c0,0.4-0.1,0.8-0.1,1.3c0,0.9,0,1.8,0.1,2.7
				c0.1,1.6,0.2,3.3-0.1,4.9c-0.1,0.3-0.1,0.6-0.3,0.8c-0.2,0.3-0.6,0.4-0.9,0.4c-0.8,0.1-1.7,0.1-2.5,0.1c-0.9,0-1.9,0-2.8,0
				c-0.9-0.1-1.9-0.2-2.8-0.3c-1-0.1-2-0.1-3.1-0.1c-0.5,0-1,0-1.5,0c-0.5-0.1-1-0.3-1.5-0.4C93,72.3,92.9,73,93.2,73
				c0.5,0.1,0.9,0.3,1.4,0.4c0.5,0.1,0.9,0.1,1.4,0.1c0.9,0,1.9-0.1,2.8,0c1,0.1,2,0.2,3,0.3c1,0.1,2,0.1,2.9,0.1c0.5,0,0.9,0,1.4,0
				c0.4,0,0.9,0,1.3-0.1c0.4-0.1,0.8-0.1,1.1-0.4c0.3-0.2,0.5-0.5,0.6-0.8c0.3-0.7,0.3-1.6,0.3-2.4c0-0.9,0-1.7,0-2.6
				c0-1.1-0.1-2.1-0.1-3.2c0-1,0.3-2,0.1-3C109.4,61.2,109.2,61.1,109.1,61.2z"/>
			<path class="st6" d="M109.8,61.6c-0.2-0.1-0.3,0.1-0.3,0.3c-0.1,0.7-0.1,1.5,0,2.3c0.1,0.8,0.2,1.7,0.2,2.5
				c0,0.9,0.1,1.8,0.1,2.6c0,0.5,0,1.1,0,1.6c-0.1,0.5-0.2,1.1-0.8,1.3c-0.3,0.1-0.2,0.8,0.2,0.7c1.2-0.4,1.2-2,1.2-3.1
				c0-0.8-0.1-1.6-0.1-2.4c0-0.9-0.1-1.8-0.2-2.7c-0.1-0.9-0.3-1.9-0.1-2.7C110,61.9,110,61.7,109.8,61.6z"/>
			<path class="st6" d="M109.6,63.3c-0.1-0.2-0.3-0.2-0.4,0c0,0.1,0,0.1-0.1,0.2c0,0.1-0.1,0.2,0,0.3c0,0.1,0,0.1,0,0.2
				c0,0.1,0,0.1,0,0.2c0,0,0,0,0,0c0,0,0,0,0,0.1c0,0.1,0,0.2,0,0.3c-0.1,0.1-0.2,0.2-0.2,0.3c0,0.2,0,0.3,0.1,0.5c0,0,0,0.1,0,0.1
				c0,0.1,0,0.2,0.1,0.4c0,0.1,0,0.2,0,0.2c0,0,0,0.1,0,0.2c0,0.2,0.1,0.5,0.1,0.7c0,0.3,0.1,0.7,0.1,1c0,0.1,0,0.2,0.1,0.3
				c0,0.1,0,0.2,0,0.2c-0.1,0.1-0.1,0.2-0.1,0.3c0,0.2,0,0.4,0,0.6c0,0,0,0.1,0,0.1c0,0,0,0.1,0,0.1c0,0,0,0,0,0c0,0,0,0,0,0.1
				c0,0.1,0,0.2,0,0.3c0,0.2,0,0.4-0.1,0.6c0,0.1,0,0.2,0.1,0.3c0,0,0,0,0,0c-0.3,0.3-0.5,0.8-0.4,1.3c0.1,0.2,0.3,0.3,0.4,0.1
				c0.1-0.2,0.2-0.4,0.3-0.5c0.1-0.1,0.1-0.3,0.1-0.5c0.1-0.2,0.1-0.5,0-0.8c0,0,0,0,0-0.1c0,0,0-0.1,0-0.1c0-0.2,0-0.4,0-0.6
				c0.1,0,0.2-0.1,0.2-0.3c0-0.3,0-0.6-0.1-0.9c0-0.1,0-0.3-0.1-0.4c0,0,0,0,0-0.1c0.1-0.6-0.1-1.2-0.3-1.8c0,0,0,0,0-0.1
				c0-0.1,0-0.2,0-0.3c0.1-0.1,0.1-0.2,0.1-0.3c0-0.3,0-0.7-0.1-1c0-0.1,0-0.1,0-0.2C109.8,64.1,109.8,63.7,109.6,63.3z"/>
			<g>
				<path class="st1" d="M107.5,56.2c0.3-0.4,0.7-0.8,1.2-1.1c0.2,0.2,0.3,0.2,0.5,0.2c0.2-0.1,0.3-0.1,0.5-0.1
					c1.6-0.4,3.2-0.1,4.7,0.9c0.8,0.5,1.4,1.2,1.8,2c0.7,1.6,0.3,3-0.8,3.9c-1.2,1-2.7,1.3-4.4,0.8c-1.5-0.4-2.8-1.2-3.5-2.7
					c-0.6-1.2-0.6-2.3,0-3.3C107.7,56.6,107.7,56.4,107.5,56.2z"/>
				<path class="st6" d="M107.5,56.2c0.2,0.2,0.2,0.4,0.1,0.6c-0.7,1-0.6,2.1,0,3.3c0.8,1.5,2,2.3,3.5,2.7c1.7,0.4,3.2,0.2,4.4-0.8
					c1.1-0.9,1.5-2.3,0.8-3.9c-0.4-0.8-1-1.5-1.8-2c-1.6-1-3.1-1.3-4.7-0.9c-0.2,0-0.3,0.1-0.5,0.1c-0.2,0.1-0.4,0-0.5-0.2
					c0.4-0.4,1-0.5,1.6-0.6c1.7-0.2,3.4,0.2,4.9,1.4c2.4,1.9,2.8,4.9,0.8,6.7c-2.1,1.8-5.9,1.4-8.1-0.9c-1.4-1.4-1.7-3-1.2-4.6
					c0.1-0.2,0.2-0.4,0.3-0.6C107.1,56.2,107.3,56.1,107.5,56.2z"/>
				<path class="st6" d="M113.3,54.4c-0.3,1.7-0.5,3.4-0.6,5.2c-0.8,0-1.6-0.2-2.3,0c-0.5,0.1-0.4,1.2,0.1,1.1
					c0.8-0.2,1.7,0.1,2.6,0.1c0.2,0,0.3-0.3,0.3-0.4c0.1-1.9,0.3-3.8,0.6-5.6C114.2,54,113.4,53.8,113.3,54.4z"/>
			</g>
			<g>
				<path class="st6" d="M83.8,86.5c1.5,0.3,3.1,0.7,4.6,0.8c0.8,0.1,1.5,0,2.1-0.4c0.6-0.4,1.2-0.9,1.7-1.5l1.6-1.7
					c0.5-0.6,1.2-1.1,1.9-1.5c0.7-0.4,1.6-0.6,2.4-0.6c0.8,0,1.6,0.2,2.4,0.4c1.5,0.4,3,1.1,4.4,0.9c0.7-0.1,1.3-0.4,2.1-0.8
					c0.7-0.4,1.4-0.7,2.2-1c1.5-0.6,3-1,4.6-1c1.6-0.1,3.2,0.1,4.7,1c0.1,0.1,0.1,0.2,0.1,0.3c-0.1,0.1-0.2,0.1-0.3,0.1l0,0
					c-1.3-0.7-2.9-0.9-4.4-0.8c-1.5,0.1-3,0.5-4.4,1c-0.7,0.3-1.4,0.6-2.1,1c-0.7,0.3-1.4,0.8-2.3,0.9c-1.7,0.2-3.2-0.4-4.7-0.9
					c-1.4-0.5-3-0.6-4.3,0.1c-1.3,0.7-2.3,2-3.4,3c-0.6,0.5-1.1,1.1-1.9,1.5c-0.7,0.4-1.6,0.5-2.4,0.4c-1.6-0.2-3.1-0.6-4.6-1
					c-0.1,0-0.2-0.1-0.1-0.2C83.6,86.6,83.7,86.5,83.8,86.5z"/>
			</g>
		</g>
		<g>
			<path class="st4" d="M81.1,82.5c-1.7-1-2.7-3.4-3.9-4.2C76,77.5,74,75.9,71,75.5c0,0-2.6-3.2-4.7-5.5c-2.1-2.3-2.8-3.1-1.4-4.9
				c1.4-1.8,5.7-7.6,5.7-7.6l6.8,2.8c0,0,6.4,6.4,8.7,9.6c2.3,3.2,2.8,4,1.9,5.1S82.8,83,82.8,83l-1.6-0.4"/>
			<path class="st6" d="M71.1,75.2c0-0.5-0.5-1-0.7-1.3c-0.4-0.5-0.9-1-1.3-1.5c-0.6-0.7-1.2-1.3-1.8-1.9c-0.4-0.4-0.8-0.7-1.2-1.1
				c-0.4-0.4-0.8-0.9-1.2-1.4c-0.3-0.4-0.5-1-0.3-1.5c0.1-0.4,0.3-0.7,0.5-1c0.3-0.3,0.5-0.7,0.8-1c0.6-0.8,1.1-1.5,1.7-2.3
				c1.3-1.6,2.6-3.2,4-4.8c0.1-0.1,0.2-0.4,0-0.5c-0.2-0.1-0.4,0-0.5,0.2c-0.1,0.1-0.2,0.2-0.3,0.3c-0.1,0.1-0.1,0.1-0.1,0.2
				c-1.1,1.2-2.2,2.5-3.2,3.8c-0.6,0.8-1.2,1.5-1.8,2.3c-0.5,0.7-1.1,1.3-1.5,2.1c-0.3,0.6-0.5,1.2-0.3,1.9c0.2,0.6,0.5,1.1,0.9,1.6
				c0.8,1,1.8,1.8,2.7,2.8c0.6,0.7,1.2,1.4,1.9,2.1c0.2,0.2,0.4,0.5,0.6,0.7c0.1,0.1,0.2,0.3,0.3,0.4c0,0,0,0.1,0.1,0.1
				c0,0.1,0,0.1,0,0.1c0,0.2,0.2,0.3,0.4,0.3C70.9,75.6,71.1,75.4,71.1,75.2z"/>
			<path class="st6" d="M88.6,73.5C88.5,73.5,88.5,73.5,88.6,73.5c-0.2-0.1-0.2-0.1-0.3-0.1c0,0-0.1,0-0.1,0c-0.1,0-0.3,0-0.4-0.1
				c-0.5,0-0.9,0-1.4,0.1c-1,0.1-2,0.1-3,0.2c-1,0-2.1,0.1-3.1,0.1c-0.4,0-0.9,0.1-1.3,0.2c-0.4,0.1-0.9,0.2-1.3,0.1
				c-1.4-0.2-1.7-2.1-2-3.4c-0.1-0.7-0.2-1.4-0.3-2c-0.2-1.1-0.4-2.2-0.6-3.3c-0.2-1.3-0.5-2.6-0.8-3.9c-0.3-1.3-0.6-2.5-0.7-3.8
				c0-0.5-0.7-0.2-0.7,0.2c0.1,1.2,0.3,2.4,0.6,3.6c0.3,1.2,0.6,2.3,0.8,3.5c0.3,2,0.7,3.9,1,5.9c0.2,1.4,0.6,3.3,1.9,3.9
				c0.8,0.4,1.7,0,2.6-0.1c1-0.1,2.1-0.1,3.2-0.2c1.2,0,2.4-0.1,3.6-0.2c0.5-0.1,1-0.1,1.5-0.1c0.4,0,0.7,0.2,1-0.1
				C88.7,73.9,88.7,73.6,88.6,73.5z"/>
			<path class="st6" d="M88.9,73.8c0.1-0.4-0.1-0.9-0.3-1.2c-0.2-0.5-0.5-1-0.8-1.5c-0.7-1.2-1.7-2.2-2.6-3.2
				c-1.2-1.4-2.4-2.7-3.7-4c-1.1-1.1-2.1-2.3-3.2-3.4c-1.2-1.2-2.5-2.3-4-2.8c-0.3-0.1-0.8,0.6-0.4,0.8c1.3,0.4,2.4,1.4,3.4,2.4
				c1.1,1,2,2.1,3,3.2c1.2,1.3,2.4,2.5,3.5,3.8c1,1.1,2,2.2,2.8,3.4c0.3,0.5,0.6,0.9,0.9,1.4c0.1,0.2,0.3,0.5,0.4,0.7
				c0,0.1,0.1,0.2,0.1,0.3c0,0,0,0.1,0,0.1c0,0,0,0,0,0c0,0,0,0,0,0c0,0.2,0.1,0.4,0.3,0.4C88.6,74.2,88.8,74,88.9,73.8z"/>
			<path class="st6" d="M88.5,73.5c-0.2,0-0.4,0.2-0.4,0.4c-0.3,0.8-0.7,1.4-1.1,2c-0.5,0.7-0.9,1.5-1.4,2.2
				c-0.4,0.7-0.9,1.4-1.3,2.2c-0.4,0.7-0.8,1.3-1.3,1.9c-0.1,0.1-0.3,0.4-0.1,0.5c0.1,0.2,0.4,0.1,0.5,0c0.6-0.6,1-1.3,1.4-2.1
				c0.4-0.8,0.9-1.5,1.3-2.2c0.5-0.8,0.9-1.5,1.4-2.3c0.5-0.7,0.9-1.4,1.2-2.2C88.8,73.7,88.7,73.5,88.5,73.5z"/>
			<g>
				<path class="st1" d="M73.8,48.7c0.7,0.2,1.3,0.4,1.9,0.9c-0.1,0.3-0.1,0.5,0.1,0.6c0.2,0.1,0.3,0.3,0.4,0.5
					c1.4,1.6,2.1,3.5,2,5.6c-0.1,1.1-0.4,2.1-1,2.9c-1.2,1.5-2.9,1.7-4.5,0.9c-1.7-0.9-2.9-2.4-3.5-4.5c-0.5-1.9-0.4-3.6,0.6-5.2
					c0.9-1.2,2-1.8,3.4-1.5C73.5,49.1,73.7,49.1,73.8,48.7z M72.2,55.6c0-0.1,0-0.1,0-0.1c-0.1-1.2-0.3-2.4-0.4-3.5
					c0-0.1,0-0.2-0.1-0.3c0-0.1-0.1-0.2-0.2-0.2c-0.1,0-0.1,0.1-0.2,0.2c0,0.1,0,0.3,0,0.4c0.1,1.3,0.2,2.6,0.2,4
					c0,0.3,0.1,0.4,0.4,0.6c0.4,0.2,0.7,0.1,1.1,0c1.2-0.4,2.4-0.7,3.6-1.1c0.2,0,0.3-0.1,0.5-0.2c0.1-0.1,0.2-0.2,0.1-0.3
					c0-0.2-0.2-0.2-0.3-0.2c-0.2,0-0.4,0-0.7,0c-1.1,0.1-2.1,0.4-3.2,0.7C72.7,55.5,72.5,55.6,72.2,55.6z"/>
				<path class="st6" d="M73.8,48.7c-0.1,0.3-0.3,0.4-0.6,0.3c-1.4-0.3-2.6,0.3-3.4,1.5c-1,1.5-1.1,3.3-0.6,5.2
					c0.6,2.1,1.8,3.6,3.5,4.5c1.6,0.8,3.3,0.6,4.5-0.9c0.6-0.8,1-1.8,1-2.9c0.1-2.2-0.6-4.1-2-5.6c-0.1-0.2-0.3-0.3-0.4-0.5
					c-0.2-0.2-0.2-0.4-0.1-0.6c0.7,0.3,1.1,0.8,1.6,1.5c1.3,1.8,1.9,3.8,1.6,6.1c-0.5,3.6-3.3,5.4-6.3,4c-3.2-1.4-5.1-5.9-4-9.4
					c0.7-2.2,2-3.3,4-3.4c0.2,0,0.5,0,0.7,0C73.5,48.4,73.7,48.5,73.8,48.7z"/>
				<path class="st6" d="M72.2,55.6c0.3,0,0.5-0.1,0.8-0.1c1.1-0.3,2.1-0.5,3.2-0.7c0.2,0,0.4,0,0.7,0c0.1,0,0.2,0,0.3,0.2
					c0,0.2,0,0.3-0.1,0.3c-0.2,0.1-0.3,0.2-0.5,0.2c-1.2,0.4-2.4,0.7-3.6,1.1c-0.4,0.1-0.7,0.2-1.1,0c-0.3-0.1-0.4-0.2-0.4-0.6
					c0.1-1.3,0-2.6-0.2-4c0-0.1,0-0.3,0-0.4c0-0.1,0.1-0.2,0.2-0.2c0.1,0,0.2,0.1,0.2,0.2c0,0.1,0.1,0.2,0.1,0.3
					c0.2,1.2,0.4,2.3,0.4,3.5C72.2,55.5,72.2,55.5,72.2,55.6z"/>
			</g>
			<g>
				<path class="st6" d="M68.5,74.9c1.6,0.2,3.1,0.3,4.8,0.6c1.6,0.3,3.1,1.3,4.2,2.5c1.1,1.2,2,2.5,3.2,3.5
					c0.6,0.5,1.2,0.9,1.9,1.1c0.7,0.1,1.5,0.1,2.3,0l0,0c0.1,0,0.2,0.1,0.2,0.2c0,0.1-0.1,0.2-0.2,0.2c-0.8,0.1-1.6,0.3-2.5,0.2
					c-0.9-0.1-1.6-0.6-2.3-1.1C79,81,78,79.6,77,78.5c-1-1.2-2.3-2-3.9-2.4c-1.5-0.3-3.1-0.4-4.7-0.8c-0.1,0-0.2-0.1-0.2-0.3
					C68.3,75,68.4,74.9,68.5,74.9z"/>
			</g>
		</g>
		<line class="st5" x1="119" y1="73.9" x2="110.5" y2="81.1"/>
	</g>
	<g>
		<path class="st10" d="M15.5,174.1l28.9-5.4c1.7-0.3,3.4,0.9,3.5,2.7l2.4,27.2c0.1,1.6-1,3-2.5,3.2l-22.9,3.7
			c-2.7,0.4-5.2-1.3-5.9-3.9l-5.9-23.9C12.7,176.1,13.8,174.4,15.5,174.1z"/>
		<path class="st11" d="M15.5,176.2c0,0,21.3,13.1,22.1,12.9c0.7-0.2,6.6-12,6.6-12"/>
	</g>
	<g>
		<path class="st12" d="M315.5,111.5c0,0,1.5-5.2,3.7-11.8s8.4,1.4,8.4,1.4s1.1,4-0.2,4.9C320.8,110.4,315.5,111.5,315.5,111.5z"/>
		<path class="st13" d="M320.8,101c0,0-1.9,8.1-5.3,10.5l2.9-10.5"/>
		<path class="st13" d="M303.8,96.9c0,0,10,0.3,22.9-5c12.9-5.4,20.5-11.3,20.5-11.3s-7.6,12.1-26.5,20.5
			C320.8,101,311.2,101.2,303.8,96.9z"/>
		<g>
			<path class="st14" d="M319.1,122.5c0,0,4.3-11.6,1.6-21.5c0,0,15.2-5.9,26.5-20.5C347.2,80.5,342.9,107.2,319.1,122.5z"/>
			<path class="st6" d="M318.7,123.1c-0.1-0.1-0.2-0.3-0.2-0.5c0-0.2,0.1-0.4,0.1-0.4l0.1-0.2l0.1-0.3l0.2-0.6
				c0.1-0.4,0.3-0.9,0.4-1.3c0.2-0.9,0.4-1.7,0.6-2.6c0.4-1.8,0.7-3.5,0.8-5.3c0.2-1.8,0.2-3.6,0.1-5.4c-0.1-1.8-0.4-3.5-0.8-5.3
				c-0.1-0.3,0.1-0.7,0.4-0.8c2.5-1.1,5-2.4,7.4-3.8c2.4-1.4,4.7-3,6.9-4.7c2.2-1.7,4.3-3.5,6.3-5.5c2-1.9,3.8-4.1,5.6-6.2l0,0l0,0
				c0.2-0.3,0.7-0.3,0.9-0.1c0.2,0.2,0.3,0.4,0.2,0.6c-0.8,4.4-2.1,8.5-3.7,12.6c-1.6,4.1-3.7,7.9-6.1,11.6
				c-1.1,1.9-2.5,3.6-3.8,5.3c-1.5,1.6-2.8,3.4-4.4,4.8c-0.8,0.8-1.5,1.6-2.4,2.3l-2.5,2.1c-0.4,0.3-0.8,0.7-1.3,1
				c-0.5,0.4-1.1,0.7-1.6,1C320.8,122,319.7,122.5,318.7,123.1z M319.6,122c0.8-0.7,1.4-1.5,2.1-2.1c0.3-0.3,0.7-0.6,1-0.8
				c0.4-0.3,0.8-0.7,1.2-1l2.4-2.1c0.8-0.7,1.5-1.5,2.3-2.3c1.5-1.5,2.9-3.2,4.3-4.7c1.3-1.7,2.6-3.4,3.7-5.2
				c2.4-3.5,4.4-7.3,6.1-11.2l1.2-3c0.4-1,0.7-2,1.1-3c0.7-2,1.3-4.1,1.7-6.1l1.2,0.5l0,0c-1.8,2.2-3.6,4.4-5.7,6.4
				c-2,2-4.2,3.9-6.4,5.6c-2.2,1.7-4.6,3.3-7,4.8c-2.4,1.5-4.9,2.8-7.6,3.9l0.4-0.8c0.4,1.8,0.7,3.7,0.8,5.5c0.1,1.9,0,3.7-0.1,5.6
				c-0.2,1.8-0.5,3.7-0.9,5.5c-0.2,0.9-0.4,1.8-0.7,2.7c-0.1,0.4-0.2,0.9-0.4,1.3l-0.2,0.7l-0.1,0.3l-0.1,0.2c0,0.1,0-0.1,0-0.2
				C319.8,122.2,319.7,122,319.6,122z"/>
		</g>
	</g>
	<g>
		<path class="st1" d="M3.4,163.1c0.8-0.9,1.8-1.7,2.9-2.3c0.3,0.4,0.6,0.5,1,0.3c0.3-0.1,0.7-0.2,1-0.3c3.4-0.8,6.5-0.4,9.3,1.7
			c1.4,1,2.4,2.4,2.9,4.2c0.9,3.3-0.4,6.3-3,8.2c-2.7,2.1-5.9,2.7-9.2,1.8c-3-0.8-5.2-2.5-6.3-5.5c-0.9-2.5-0.5-4.8,1.2-6.9
			C3.7,163.9,3.7,163.6,3.4,163.1z M11,171.6c-0.1,0-0.2,0-0.2-0.1c-1.6-0.9-3.4-1.6-5.1-2.4c-0.2-0.1-0.3-0.1-0.5-0.2
			c-0.2,0-0.3,0-0.4,0.2c-0.1,0.2,0,0.3,0.1,0.4c0.2,0.2,0.3,0.3,0.6,0.4c1.9,1,3.7,2,5.4,3.2c0.4,0.3,0.7,0.3,1.1-0.1
			c0.6-0.4,0.8-1.1,1-1.8c0.6-2.2,1.2-4.5,1.9-6.7c0.1-0.3,0.1-0.6,0.2-1c0-0.2,0-0.5-0.3-0.5c-0.2-0.1-0.4,0.1-0.5,0.3
			c-0.2,0.4-0.4,0.7-0.6,1.1c-0.8,1.9-1.5,3.8-2.1,5.8C11.4,170.7,11.3,171.2,11,171.6z"/>
		<path class="st15" d="M3.4,163.1c0.3,0.4,0.3,0.8-0.1,1.2c-1.7,2.1-2,4.4-1.2,6.9c1,3,3.3,4.7,6.3,5.5c3.3,0.9,6.4,0.3,9.2-1.8
			c2.5-1.9,3.8-4.8,3-8.2c-0.5-1.7-1.5-3.1-2.9-4.2c-2.8-2.1-6-2.6-9.3-1.7c-0.3,0.1-0.7,0.1-1,0.3c-0.4,0.2-0.7,0-1-0.3
			c1-0.8,2.2-1.1,3.4-1.3c3.6-0.5,6.8,0.3,9.5,2.8c4.3,3.9,4.1,10.1-0.5,13.7c-4.8,3.9-12.5,3.1-16.2-1.7c-2.3-3-2.4-6.1-0.8-9.5
			c0.2-0.4,0.5-0.8,0.7-1.2C2.6,163.3,3,163.1,3.4,163.1z"/>
		<path class="st15" d="M11,171.6c0.2-0.4,0.4-0.9,0.5-1.4c0.6-1.9,1.3-3.9,2.1-5.8c0.2-0.4,0.4-0.7,0.6-1.1
			c0.1-0.2,0.2-0.3,0.5-0.3c0.3,0.1,0.3,0.3,0.3,0.5c0,0.3-0.1,0.7-0.2,1c-0.6,2.3-1.2,4.5-1.9,6.7c-0.2,0.7-0.4,1.3-1,1.8
			c-0.4,0.3-0.7,0.4-1.1,0.1C9.1,172,7.3,171,5.4,170c-0.2-0.1-0.4-0.2-0.6-0.4c-0.1-0.1-0.2-0.3-0.1-0.4C4.8,169,5,169,5.2,169
			c0.2,0,0.3,0.1,0.5,0.2c1.7,0.8,3.5,1.4,5.1,2.4C10.8,171.6,10.9,171.6,11,171.6z"/>
	</g>
	<g>
		<path class="st16" d="M123.7,256.9c2.4,3.9,7.9,14.5,11.5,23.8c0.7,1.9,5,1.8,6.9,1.4c6.8-1.3,21.1-3.2,31.9-7.4
			c2.5-1,2.2-2.6,1.5-3.1c-6.1-4.1-26-16-30.1-18.8c-0.5-0.3-1.1-0.5-1.7-0.4c-3.3,0.3-14.3,1.3-19.2,2.5
			C123.7,255.1,123.3,256.2,123.7,256.9z"/>
		<path class="st17" d="M153.7,244.3c-0.3-0.7,9-5.3,10.4-5.4c1.2,0,19.3,5.6,26.7,8.1c0.9,0.3,1,1.8,0.1,2.3l-11.9,7.5
			c-1.6,0.9-4.2,1.3-5.7,0.3L153.7,244.3z"/>
		<g>
			<path class="st4" d="M121.5,254.5c2.4,3.9,8.8,14.8,12.4,24.1c0.7,1.9,2.5,2.9,4.5,2.5c6.8-1.3,22.6-4.6,33.5-8.8
				c0.9-0.4,1.2-1.7,0.4-2.3c-6.1-4.1-25-16.8-29-19.6c-0.5-0.3-1.1-0.5-1.7-0.4c-3.3,0.3-14.3,1.3-19.2,2.5
				C121.6,252.7,121.1,253.7,121.5,254.5z"/>
			<path class="st6" d="M122.1,254.1c2.8,4.6,5.5,9.3,7.9,14.1c1.2,2.4,2.4,4.8,3.5,7.3c0.3,0.6,0.5,1.2,0.8,1.9l0.4,0.9
				c0.1,0.3,0.2,0.5,0.4,0.7c0.6,0.9,1.7,1.4,2.8,1.4c0.1,0,0.3,0,0.4,0l0.5-0.1l1-0.2l2-0.4l3.9-0.8c2.6-0.6,5.2-1.1,7.8-1.8
				c5.2-1.3,10.4-2.7,15.4-4.4c0.6-0.2,1.3-0.5,1.9-0.7l0.9-0.3c0.1-0.1,0.3-0.2,0.3-0.4c0.1-0.2,0.1-0.4,0.1-0.5
				c0-0.1,0-0.1-0.1-0.2c0,0,0,0-0.1-0.1l-0.2-0.1l-1.7-1.1l-6.7-4.5l-13.3-9l-6.7-4.5l-0.4-0.3c-0.1-0.1-0.2-0.1-0.3-0.2
				c-0.2-0.1-0.5-0.1-0.7-0.2c-0.2,0-0.6,0-0.9,0.1l-1,0.1l-4,0.4c-2.7,0.3-5.3,0.6-8,1c-1.3,0.2-2.6,0.4-3.9,0.7
				c-0.3,0.1-0.6,0.1-1,0.2l-0.5,0.1c-0.1,0-0.1,0-0.2,0.1C122.1,253.4,122,253.9,122.1,254.1z M120.9,254.8c-0.6-1-0.2-2.1,0.6-2.7
				c0.2-0.2,0.5-0.3,0.7-0.3l0.5-0.1c0.3-0.1,0.7-0.1,1-0.2c1.3-0.3,2.7-0.5,4-0.6c2.7-0.4,5.3-0.7,8-0.9l4-0.4l1-0.1
				c0.4,0,0.6-0.1,1.1-0.1c0.4,0,0.8,0.1,1.2,0.3c0.2,0.1,0.4,0.2,0.5,0.3l0.4,0.3l6.7,4.5l13.4,9l6.7,4.5l1.7,1.1l0.2,0.1
				c0.1,0.1,0.2,0.2,0.3,0.3c0.2,0.2,0.3,0.5,0.4,0.7c0.1,0.5,0.1,1-0.1,1.4c-0.2,0.4-0.6,0.8-1,1l-1,0.4c-0.6,0.2-1.3,0.5-1.9,0.7
				c-5.1,1.8-10.3,3.2-15.5,4.6c-2.6,0.6-5.2,1.3-7.9,1.8l-3.9,0.8l-2,0.4l-1,0.2l-0.5,0.1c-0.2,0-0.4,0.1-0.6,0.1
				c-1.6,0.1-3.3-0.7-4.1-2c-0.2-0.3-0.4-0.7-0.6-1l-0.4-0.9c-0.2-0.6-0.5-1.2-0.8-1.8c-1-2.4-2.2-4.9-3.4-7.2
				C126.3,264.1,123.7,259.4,120.9,254.8z"/>
		</g>
		<path class="st18" d="M149.9,242.4c-0.3-0.7,9-5.3,10.4-5.4c1.2,0,21.5,6.7,28.9,9.2c0.9,0.3,1,1.8,0.1,2.3l-13.4,7.7
			c-1.6,0.9-3.5,0.9-5.1-0.1L149.9,242.4z"/>
		<g>
			<path class="st6" d="M142.7,250.1c-0.7,4-1.5,8-2,11.9c-0.1,0.9-0.1,1.9,0.2,2.5c0.3,0.5,1.1,0.9,2,1.1c0.9,0.2,1.9,0.4,2.9,0.5
				l3,0.5c4,0.6,8,1.2,12,1.8c4,0.6,8,1.3,12,2.1l-0.2,1.2c-4-0.4-8.1-0.9-12.1-1.4c-4-0.6-8-1.1-12.1-1.8l-3-0.5
				c-1-0.2-2-0.3-3.1-0.6c-0.5-0.2-1.1-0.3-1.6-0.6c-0.5-0.3-1.1-0.8-1.4-1.4c-0.3-0.6-0.4-1.3-0.5-1.8c0-0.5,0-1.2,0.1-1.7
				c0.6-4.1,1.6-8,2.5-12L142.7,250.1z"/>
		</g>
		<path class="st19" d="M161,237.2c2.6,2.2,5.5,6.7,6.7,8.5c0.3,0.5,0.8,0.9,1.4,1.1c2.8,0.9,11.4,3.4,20.9,0.4"/>
	</g>
	<path class="st20" d="M4.7,156.6c-12.4-41.1,29.1-48.7,37.4-24.1c12.1,35.7-33.4,8.1,4.2,2.9c13.3-1.9,26.4,12.8,19.7,30.4"/>
	<path class="st20" d="M312.1,113.6c-24.1,14.9-13.8,32.1,2.4,49.6s6.5,45-25.9,43.1"/>
	<g>
		<path class="st6" d="M143.7,91.9l135.6,28.8c3.9,0.8,6.8,4.3,6.8,8.3v78c0,3.7-3.5,6.4-7.1,5.5l-135.7-35.2
			c-3.8-1-6.4-4.4-6.4-8.3V97.4C136.9,93.8,140.2,91.1,143.7,91.9z"/>
		<path class="st6" d="M143.7,91.7l115.3,24.5l14.4,3.1l3.6,0.8c1.2,0.3,2.4,0.4,3.6,0.9c2.3,0.9,4.2,2.9,5,5.2
			c0.4,1.2,0.5,2.5,0.5,3.7l0,3.7l0,7.4l0,14.7l0,29.5l0,14.7l0,7.4c0,1.3-0.5,2.5-1.3,3.5c-0.8,1-1.9,1.7-3.2,1.9
			c-0.6,0.1-1.2,0.2-1.9,0.1c-0.6-0.1-1.2-0.2-1.8-0.4l-3.6-0.9l-7.1-1.9l-14.3-3.7l-28.5-7.4l-57.1-14.8l-14.3-3.7l-7.1-1.9
			c-1.2-0.3-2.4-0.6-3.6-1c-1.2-0.4-2.2-1.1-3.1-2c-1.8-1.7-2.7-4.3-2.6-6.8l0-7.4l0-14.7l0-29.5l0-14.7l0-3.7c0-0.6,0-1.2,0.1-1.9
			c0.1-0.6,0.3-1.2,0.6-1.8c0.6-1.1,1.5-2,2.7-2.6C141.2,91.6,142.5,91.5,143.7,91.7z M143.7,92c-1.2-0.2-2.4-0.1-3.5,0.4
			c-1.1,0.5-2,1.4-2.5,2.5c-0.3,0.5-0.5,1.1-0.5,1.7c-0.1,0.6-0.1,1.2-0.1,1.8l0,3.7l0,14.7l0,29.5l0,14.7l0,7.4
			c-0.1,2.4,0.7,4.9,2.5,6.6c0.9,0.9,1.9,1.5,3,1.9c1.1,0.4,2.4,0.6,3.5,1l7.1,1.8l14.3,3.7l57.1,14.8l28.5,7.4l14.3,3.7l7.1,1.8
			l3.6,0.9c0.6,0.2,1.2,0.3,1.8,0.4c0.6,0.1,1.2,0,1.8-0.1c1.2-0.3,2.2-0.9,3-1.9c0.8-0.9,1.2-2.1,1.3-3.3l0-7.4l0-14.7l0-29.5
			l0-14.7l0-7.4l0-3.7c0-1.2,0-2.4-0.4-3.6c-0.8-2.3-2.6-4.2-4.8-5.1c-1.1-0.4-2.4-0.6-3.6-0.9l-3.6-0.8l-14.4-3.1L143.7,92z"/>
	</g>
	<g>
		<path class="st4" d="M142.2,90.2l135.6,28.8c3.9,0.8,6.8,4.3,6.8,8.3v78c0,3.7-3.5,6.4-7.1,5.5l-135.7-35.2
			c-3.8-1-6.4-4.4-6.4-8.3V95.7C135.4,92.1,138.7,89.4,142.2,90.2z"/>
		<path class="st6" d="M142.4,89.3l115.3,24.6c4.8,1,9.6,2.1,14.4,3l3.6,0.7l1.8,0.3c0.6,0.1,1.3,0.3,1.9,0.5c2.6,1,4.7,3.1,5.6,5.7
			c0.2,0.7,0.4,1.3,0.5,2c0.1,0.3,0,0.7,0.1,1l0,0.9l0,3.7l0,7.4l0,14.7l0,29.5l0,14.7l0,7.4c0,1.5-0.6,2.9-1.5,4
			c-0.9,1.1-2.2,1.9-3.7,2.3c-0.7,0.1-1.4,0.2-2.2,0.1c-0.4,0-0.7-0.1-1.1-0.2l-0.9-0.2l-3.6-0.9l-7.1-1.9l-14.3-3.7l-28.5-7.5
			l-57-14.9l-14.3-3.7l-7.1-1.9l-1.8-0.5c-0.6-0.2-1.2-0.3-1.8-0.5c-1.3-0.5-2.4-1.2-3.4-2.1c-1-0.9-1.7-2.1-2.2-3.4
			c-0.5-1.2-0.6-2.7-0.6-3.9l0-7.4l0-14.7l0-29.5l0-14.7l0-3.7l0-0.9c0-0.3,0-0.7,0.1-1c0.1-0.7,0.3-1.4,0.6-2
			c0.7-1.3,1.7-2.3,3-2.9C139.5,89.2,141,89,142.4,89.3z M142,91.1c-2-0.5-4.3,0.6-5.2,2.5c-0.2,0.5-0.4,1-0.5,1.5
			c-0.1,0.3,0,0.5-0.1,0.8l0,0.9l0,3.7l0,14.7l0,29.5l0,14.7l0,7.4c0,0.6,0,1.2,0.1,1.7c0.1,0.6,0.2,1.1,0.4,1.6c0.4,1,1,2,1.8,2.8
			c0.8,0.8,1.8,1.4,2.8,1.8c0.5,0.2,1.1,0.3,1.7,0.5l1.8,0.5l7.1,1.8l14.3,3.7l57.1,14.7l28.5,7.3l14.3,3.7l7.1,1.8l3.6,0.9l0.9,0.2
			c0.3,0,0.5,0.1,0.7,0.1c0.5,0.1,1,0,1.5-0.1c2-0.4,3.5-2.3,3.5-4.3l0-7.3l0-14.7l0-29.5l0-14.7l0-7.4l0-3.7l0-0.9
			c0-0.3,0-0.5,0-0.8c0-0.5-0.2-1.1-0.3-1.6c-0.3-1-0.9-2-1.6-2.8c-0.7-0.8-1.6-1.4-2.6-1.9c-0.5-0.2-1-0.4-1.6-0.5l-1.8-0.4
			l-3.6-0.8c-4.8-1.1-9.6-2.1-14.4-3.1L142,91.1z"/>
	</g>
	<path class="st1" d="M136.9,95.2l135.6,28.8c3.9,0.8,6.8,4.3,6.8,8.3v78c0,3.7-3.5,6.4-7.1,5.5l-135.7-35.2c-3.8-1-6.4-4.4-6.4-8.3
		v-71.6C130,97.1,133.3,94.4,136.9,95.2z"/>
	<line class="st21" x1="239.5" y1="113.6" x2="239.5" y2="190.8"/>
	<g>
		<path class="st6" d="M118.2,64.7l140.9,29.9c4.1,0.9,7,4.5,7,8.7v110.6c0,3.8-3.6,6.7-7.3,5.7l-141-36.6c-3.9-1-6.6-4.5-6.6-8.6
			V70.5C111.1,66.8,114.6,64,118.2,64.7z"/>
		<path class="st6" d="M118.3,64.5l134.3,28.4l4.2,0.9l2.1,0.4c0.7,0.1,1.4,0.3,2.1,0.7c2.7,1.2,4.8,3.8,5.3,6.7
			c0.1,0.7,0.2,1.5,0.2,2.2l0,2.1l0,4.3l0,8.6l0,34.3l0,34.3l0,17.2l0,8.6c0,0.7,0,1.5-0.2,2.2c-0.2,0.7-0.5,1.4-0.9,2
			c-0.9,1.2-2.2,2.1-3.7,2.5c-0.7,0.2-1.5,0.2-2.3,0.1c-0.8-0.1-1.4-0.3-2.1-0.5l-4.2-1.1l-8.3-2.2l-16.6-4.3l-33.2-8.6l-66.4-17.3
			l-8.3-2.2l-2.1-0.5c-0.7-0.2-1.4-0.4-2.1-0.7c-1.3-0.6-2.5-1.6-3.4-2.7c-0.9-1.2-1.5-2.6-1.7-4c-0.2-1.5-0.1-2.9-0.1-4.3l0-8.6
			l0-34.3l0-34.3l0-17.2l0-4.3l0-2.1c0-0.7,0.1-1.5,0.3-2.2c0.5-1.4,1.5-2.7,2.8-3.4C115.2,64.4,116.8,64.2,118.3,64.5z M118.2,65
			c-1.3-0.3-2.8-0.1-3.9,0.6c-1.2,0.7-2.1,1.8-2.5,3.1c-0.2,0.6-0.3,1.3-0.3,2l0,2.1l0,4.3l0,17.2l0,34.3l0,34.3l0,8.6
			c0,1.4-0.1,2.9,0.1,4.2c0.2,1.4,0.8,2.7,1.6,3.8c0.8,1.1,2,2,3.2,2.6c1.3,0.6,2.7,0.8,4.1,1.2l8.3,2.1l66.5,17.2l33.2,8.6
			l16.6,4.3l8.3,2.1l4.2,1.1c0.7,0.2,1.4,0.4,2,0.5c0.7,0.1,1.3,0.1,2-0.1c1.3-0.3,2.5-1.1,3.3-2.2c0.4-0.6,0.7-1.2,0.8-1.8
			c0.2-0.7,0.2-1.3,0.2-2l0-8.6l0-17.2l0-34.3l0-34.3l0-8.6l0-4.3c0-1.4,0.1-2.9-0.1-4.2c-0.5-2.7-2.4-5.1-4.9-6.2
			c-0.6-0.3-1.3-0.5-2-0.6l-2.1-0.5l-4.2-0.9L118.2,65z"/>
	</g>
	<g>
		<path class="st4" d="M116.4,63.2l140.9,29.9c4.1,0.9,7,4.5,7,8.7v110.6c0,3.8-3.6,6.7-7.3,5.7l-141-36.6c-3.9-1-6.6-4.5-6.6-8.6
			V69C109.3,65.3,112.7,62.5,116.4,63.2z"/>
		<path class="st6" d="M116.5,62.6L250.9,91l4.2,0.9l2.1,0.4c0.7,0.1,1.5,0.4,2.2,0.7c2.9,1.2,5.1,3.9,5.7,7
			c0.1,0.8,0.2,1.6,0.2,2.3l0,2.1l0,4.3l0,8.6l0,34.3l-0.1,34.3l0,17.2l0,8.6c0,0.7,0,1.5-0.2,2.3c-0.2,0.8-0.6,1.5-1,2.2
			c-0.9,1.3-2.4,2.3-4,2.7c-0.8,0.2-1.6,0.2-2.4,0.1c-0.8-0.1-1.5-0.3-2.2-0.5l-4.2-1.1l-8.3-2.2l-16.6-4.3l-33.2-8.7l-66.4-17.3
			l-8.3-2.2l-2.1-0.5c-0.7-0.2-1.4-0.4-2.1-0.7c-1.4-0.6-2.6-1.6-3.5-2.8c-0.9-1.2-1.5-2.6-1.8-4.1c-0.1-0.7-0.1-1.5-0.1-2.2l0-2.1
			l0-8.6l0-34.3l0-34.3l0-17.2l0-4.3l0-2.1c0-0.7,0.1-1.6,0.3-2.3c0.5-1.5,1.6-2.8,2.9-3.6C113.3,62.5,115,62.3,116.5,62.6z
			 M116.3,63.9c-1.2-0.3-2.6-0.1-3.7,0.6c-1.1,0.6-2,1.7-2.4,2.9c-0.2,0.6-0.3,1.2-0.3,1.9l0,2.1l0,4.3l0,17.2l0,34.3l0,34.3l0,8.6
			c0,1.4-0.1,2.9,0.1,4.2c0.2,1.3,0.8,2.6,1.6,3.7c0.8,1.1,1.9,1.9,3.1,2.5c0.6,0.3,1.2,0.5,1.9,0.6l2.1,0.5l8.3,2.1l66.5,17.1
			l33.2,8.6l16.6,4.3l8.3,2.1l4.2,1.1c0.7,0.2,1.4,0.4,2,0.5c0.6,0.1,1.2,0,1.8-0.1c1.2-0.3,2.3-1,3-2c0.3-0.5,0.6-1.1,0.8-1.7
			c0.1-0.6,0.2-1.2,0.2-1.9l0-8.6l0-17.2l-0.1-34.3l0-34.3l0-8.6l0-4.3l0-2.1c0-0.7,0-1.3-0.1-2c-0.4-2.6-2.2-4.8-4.6-5.9
			c-0.6-0.3-1.2-0.5-1.9-0.6l-2.1-0.5l-4.2-0.9L116.3,63.9z"/>
	</g>
	<path class="st22" d="M123.5,71.1l130.3,27.6c3.8,0.8,6.5,4.1,6.5,8V209c0,3.6-3.4,6.1-6.8,5.3l-130.4-33.8
		c-3.6-0.9-6.1-4.2-6.1-7.9V76.4C117,73,120.2,70.4,123.5,71.1z"/>
	<path class="st4" d="M235.8,128.6c-0.3-1-3.1-1.7-9.2,6.5c0.2-3.8,7.2-13.7,5.4-14.6c-1.3-0.7-6.3,4.7-10,14l-0.1,0.1l0-0.1
		c2.2-7.9,4.9-19.5,2.9-20.5c-1.5-0.7-3.4,4.3-6.9,15.9c0.6-4.6,1.5-13.6,0.1-14c-1.6-0.5-6.5,14.2-8.8,22.5c-1.2-0.9-2.2-1.5-3-4.4
		c-1.4-5.8-3.4-6.1-4.3-4.5c-1,1.6,2.6,18.5,3.2,25.2c0.6,6.7-9.4,27.6-9.4,27.6l-3.4,7.5c0,0,10.7,25,26.4,12.1l0-0.4l0,0
		c0,0-0.1-29.8,3.1-46l-0.1-0.1c2.9-2.3,5.3-11.1,6.1-14.7C229.2,134.1,236.4,130.5,235.8,128.6z"/>
	<g>
		<path class="st6" d="M146.7,118.7l27.9,27l-1.1,0l48-44.5c0.3-0.3,0.7-0.3,1,0l17.4,14.6l-1,0l14.5-11.1c0.2-0.1,0.4-0.1,0.6,0.1
			c0.1,0.2,0.1,0.4-0.1,0.6L240,117c-0.3,0.2-0.7,0.2-1,0l0,0l-17.4-14.6l1,0l-48,44.5c-0.3,0.3-0.8,0.3-1.1,0l-27.9-27
			c-0.3-0.3-0.3-0.8,0-1.1S146.4,118.4,146.7,118.7z"/>
	</g>
	<path class="st23" d="M71.6,206.3l70.5,20.6c1.2,0.4,1.3,4.1,0.1,4.8L126,243c-1.1,0.7-2.4,0.8-3.6,0.4l-74.1-25.1
		c0,0-1.3-2-0.4-3.2C48.2,214.7,71.2,206.1,71.6,206.3z"/>
	<path class="st24" d="M70.6,202.8l70.4,23.6c1.2,0.4,1.4,2.1,0.3,2.8L125,239.5c-1.1,0.7-2.4,0.8-3.6,0.4l-74.1-24.6l21.9-12.4
		C69.7,202.7,70.1,202.7,70.6,202.8z"/>
	<g>
		<path class="st4" d="M130.6,146.3c0,0-17.2,3.3-26.8,10.4c-9.5,7.1-14.4,19.5-14.4,19.5l26.2,35.3l50.5,16.9l4.5-34.3l-20.5-45.8
			L130.6,146.3z"/>
		<path class="st6" d="M130.7,146.9l-1.5,0.3l-1.6,0.4c-1.1,0.2-2.2,0.5-3.2,0.8c-2.1,0.6-4.3,1.2-6.3,2c-4.2,1.4-8.2,3.3-11.8,5.8
			c-1.8,1.2-3.4,2.6-5,4.1c-1.5,1.5-3,3.2-4.3,4.9c-2.6,3.5-4.9,7.3-6.8,11.2l0,0l-0.1-0.6l26.2,35.3l-0.3-0.2l50.5,16.9l-0.8,0.5
			l4.5-34.3l0.1,0.3l-20.5-45.8l0.5,0.4L130.7,146.9z M130.6,145.7l19.7,1.9c0.2,0,0.4,0.2,0.5,0.4l20.5,45.8c0,0.1,0.1,0.2,0.1,0.3
			l-4.5,34.3c0,0.3-0.4,0.6-0.7,0.5c0,0-0.1,0-0.1,0l-50.5-16.9c-0.1,0-0.2-0.1-0.3-0.2L89,176.6l0,0c-0.1-0.2-0.2-0.4-0.1-0.6l0,0
			c0.8-2.1,1.7-4.2,2.8-6.2c1.1-2,2.3-3.9,3.6-5.7c1.4-1.8,2.8-3.6,4.4-5.2c1.7-1.6,3.5-3,5.4-4.2c3.9-2.3,8.1-4,12.4-5.4
			c2.1-0.7,4.3-1.4,6.4-2c1.1-0.3,2.2-0.6,3.2-0.9l1.6-0.4l0.8-0.2l0.4-0.1l0.2,0L130.6,145.7z"/>
	</g>
	<path class="st25" d="M158.6,194.6c0,0,8.5,17,9,23.3l2.4-15.6"/>
	<g>
		<path class="st4" d="M150.2,148.2c0,0,19.1,1.9,24.9,6.9c5.8,5.1,22.1,32.6,22.1,32.6l17.2,21.4c0,0-7.6,17.8-20.7,12.4
			c-13-5.4-38.1-29.6-38.1-29.6"/>
		<path class="st6" d="M150.3,147.6c5.5,0.5,10.9,1.3,16.3,2.7c2.7,0.7,5.3,1.6,7.9,3.1c1.3,0.8,2.3,1.9,3.2,2.9
			c0.9,1.1,1.8,2.2,2.6,3.2c3.3,4.4,6.3,9,9.2,13.6c2.9,4.6,5.8,9.3,8.5,14l-0.1-0.1l8.5,10.8l8.4,10.8l0,0c0.1,0.2,0.2,0.4,0.1,0.6
			l0,0c-1.3,3-3,5.7-5.1,8.1c-2.1,2.4-4.8,4.6-8.1,5.5c-1.6,0.5-3.4,0.6-5,0.3c-1.7-0.2-3.3-0.8-4.7-1.6c-1.5-0.6-2.8-1.5-4.2-2.3
			c-1.3-0.9-2.7-1.7-4-2.6c-5.2-3.6-10.1-7.6-14.8-11.7c-2.4-2.1-4.7-4.2-7-6.3c-2.3-2.2-4.6-4.3-6.8-6.5c-0.2-0.2-0.3-0.7,0-0.9
			c0.2-0.2,0.6-0.3,0.9,0l0,0c2.3,2.1,4.6,4.2,7,6.3c2.3,2.1,4.7,4.1,7.1,6.1c4.8,4,9.7,7.9,14.8,11.5c1.3,0.9,2.6,1.7,3.9,2.6
			c1.3,0.8,2.6,1.6,4,2.2c2.7,1.4,5.6,2,8.5,1.2c2.8-0.7,5.3-2.6,7.3-4.8c2.1-2.2,3.8-4.8,5.1-7.6l0,0l0.1,0.7l-8.7-10.6l-8.7-10.6
			c0,0,0-0.1-0.1-0.1l0,0c-2.8-4.7-5.7-9.3-8.6-13.9c-2.9-4.6-5.9-9.1-9.1-13.5c-0.8-1.1-1.6-2.2-2.5-3.1c-0.8-1-1.8-1.9-2.8-2.6
			c-2.2-1.3-4.7-2.2-7.3-3c-5.2-1.5-10.6-2.5-15.9-3.2l0,0c-0.3,0-0.6-0.4-0.5-0.7C149.6,147.8,149.9,147.6,150.3,147.6z"/>
	</g>
	<g>
		<path class="st4" d="M129.7,135.8c0,0-1.1,12-3.6,20.1c-0.2,0.6,0,1.2,0.6,1.6c3.5,2.2,17.4,5.6,27.1-8.8c0,0-5-6.2-5.5-22.5
			S129.7,135.8,129.7,135.8z"/>
		<path class="st6" d="M130.3,136.1l-0.5,3.2l-0.5,3.3c-0.3,2.2-0.7,4.4-1.1,6.6c-0.4,2.2-0.9,4.4-1.5,6.6l-0.1,0.4
			c0,0.1,0,0.2,0,0.3c0,0.2,0.1,0.3,0.2,0.5c0.1,0.1,0.2,0.2,0.5,0.3c0.2,0.1,0.4,0.3,0.7,0.3c1,0.4,2,0.7,3.1,0.9
			c4.2,0.9,8.7,0.3,12.6-1.5c3.9-1.9,7.1-5,9.6-8.6l0,0l0,0.8c-1.4-2-2.1-4-2.9-6.1c-0.7-2.1-1.2-4.3-1.6-6.4
			c-0.4-2.2-0.7-4.4-0.8-6.5c-0.1-1.1-0.1-2.2-0.2-3.3c-0.1-1.1-0.1-2.1-0.3-3.1c-0.2-1-0.7-2-1.5-2.2c-0.8-0.3-1.8,0.1-2.7,0.6
			c-1.8,1-3.4,2.5-4.9,4.1c-1.5,1.6-2.9,3.2-4.3,4.9c-0.7,0.8-1.3,1.7-2,2.6l-1,1.3l-0.5,0.7l-0.2,0.3L130.3,136.1L130.3,136.1
			C130.2,136.1,130.3,136.1,130.3,136.1z M129.1,135.6c0-0.1,0.1-0.2,0.1-0.2l0.1-0.1l0.1-0.2l0.2-0.3l0.5-0.7l1-1.3
			c0.7-0.9,1.3-1.7,2-2.6c1.4-1.7,2.8-3.4,4.4-4.9c1.6-1.6,3.2-3.1,5.2-4.2l0.8-0.4c0.3-0.1,0.6-0.2,0.9-0.3c0.3,0,0.6-0.2,0.9-0.1
			l0.5,0c0.2,0,0.3,0.1,0.5,0.1c0.3,0.1,0.6,0.3,0.9,0.5c0.2,0.2,0.4,0.5,0.6,0.8c0.1,0.3,0.3,0.5,0.4,0.8l0.3,0.8
			c0.2,1.1,0.3,2.3,0.4,3.4c0.1,1.1,0.1,2.2,0.2,3.2c0.1,2.2,0.5,4.3,0.8,6.4c0.4,2.1,0.9,4.2,1.6,6.2c0.7,2,1.6,4.1,2.8,5.7l0,0
			c0.2,0.2,0.2,0.5,0,0.7l0,0c-2.5,3.8-5.9,7.1-10.1,9.1c-4.2,1.9-9,2.6-13.5,1.5c-1.1-0.3-2.2-0.6-3.3-1.1
			c-0.3-0.1-0.5-0.3-0.8-0.4c-0.2-0.1-0.6-0.4-0.8-0.7c-0.2-0.3-0.3-0.7-0.3-1.1c0-0.2,0-0.4,0.1-0.6l0.1-0.4
			c0.7-2.1,1.2-4.3,1.7-6.4c0.4-2.2,0.8-4.4,1.2-6.6c0.1-1.1,0.3-2.2,0.4-3.3l0.1-1.7l0-0.8l0-0.4C129,136,129,136,129.1,135.6z"/>
	</g>
	<path class="st26" d="M135.8,137.7c0,0-2.8,2.9-6.7,2.9l0.5-4"/>
	<path class="st4" d="M123.6,96.9c0.4,5.7,1.4,12.8,0,17.8c-1.4,5-5.2,9-2.2,17.3c3.1,8.6,15.3,5.5,15.3,5.5s11-7,11.6-11.3
		c0.6-4.4,0.6-22.9,0.6-22.9l-9.9-8.8L123.6,96.9z"/>
	<g>
		<path class="st4" d="M36.5,155.9l67,22.4c2.3,0.8,4.1,2.7,4.8,5.1l14,52.9c0.5,1.8-1.3,3.4-3,2.9l-67.9-22.5
			c-2.4-0.8-4.2-2.8-4.8-5.3l-12.5-53.1C33.6,156.7,35,155.4,36.5,155.9z"/>
		<path class="st6" d="M36.8,155.1l65.4,21.7l1,0.3c0.3,0.1,0.7,0.2,1.1,0.4c0.8,0.3,1.5,0.7,2.1,1.2c1.3,1,2.3,2.4,2.8,4l2.2,8.4
			l4.4,16.7l4.4,16.7l2.2,8.3l0.5,2.1l0.3,1c0,0.1,0.1,0.4,0.1,0.7c0,0.3,0,0.5,0,0.8c-0.1,1-0.7,2-1.6,2.5
			c-0.4,0.3-0.9,0.4-1.5,0.5c-0.5,0.1-1.1-0.1-1.5-0.2l-65.3-21.9l-2-0.7c-0.7-0.2-1.5-0.5-2.1-1c-1.4-0.8-2.5-2.1-3.1-3.6
			c-0.3-0.7-0.5-1.5-0.7-2.2l-0.5-2.1l-1-4.2l-3.9-16.8l-4-16.8l-2-8.4l-1-4.2c-0.3-1,0.1-2.1,0.8-2.8
			C34.7,155,35.8,154.7,36.8,155.1z M36.3,156.7c-0.4-0.1-0.8,0-1.2,0.2c-0.3,0.3-0.4,0.7-0.3,1.1l1,4.2l2,8.4l3.9,16.8l4,16.8
			l1,4.2l0.5,2.1c0.2,0.7,0.3,1.3,0.6,1.9c0.5,1.2,1.4,2.2,2.5,2.8c0.6,0.3,1.1,0.6,1.8,0.8l2,0.7l65.4,21.5
			c0.5,0.2,0.8,0.1,1.2-0.1c0.3-0.2,0.6-0.6,0.6-1c0-0.1,0-0.2,0-0.3c0-0.1,0-0.2-0.1-0.4l-0.3-1l-0.6-2.1l-2.2-8.3l-4.4-16.6
			l-4.4-16.7l-2.2-8.3c-0.4-1.2-1.1-2.2-2-3c-0.5-0.4-1-0.7-1.6-0.9c-0.3-0.1-0.6-0.2-1-0.3l-1-0.3L36.3,156.7z"/>
	</g>
	<path class="st8" d="M42.3,161.6l59.6,20c2.1,0.7,3.7,2.4,4.2,4.5l12.4,47.2c0.4,1.6-1.1,3.1-2.7,2.5l-60.5-20.1
		c-2.2-0.7-3.8-2.5-4.3-4.7L40,163.7C39.6,162.3,41,161.1,42.3,161.6z"/>
	<ellipse transform="matrix(0.8782 -0.4782 0.4782 0.8782 -21.9873 118.6325)" class="st6" cx="222" cy="102.5" rx="2.3" ry="2.7"/>
	
		<ellipse transform="matrix(0.8782 -0.4782 0.4782 0.8782 -48.4174 101.0233)" class="st6" cx="174.2" cy="145.6" rx="2.3" ry="2.7"/>
	
		<ellipse transform="matrix(0.8782 -0.4782 0.4782 0.8782 -26.0974 128.5989)" class="st6" cx="239.5" cy="115.5" rx="2.1" ry="2.5"/>
	
		<ellipse transform="matrix(0.8782 -0.4782 0.4782 0.8782 -19.4946 134.1935)" class="st6" cx="253.8" cy="105.4" rx="1.6" ry="1.9"/>
	<g>
		<path class="st4" d="M212.6,143.5c-2.1-6.9-4.8-3.8-6.2-9.6c-1.4-5.8-3.4-6.1-4.3-4.5c-1,1.6,2.6,18.5,3.2,25.2
			c0.6,6.7-9.4,27.6-9.4,27.6l-3.4,7.5c0,0,10.7,25,26.4,12.1"/>
		<path class="st6" d="M211.8,143.7c-0.5-1.6-1-3.2-2.2-4.2c-0.5-0.5-1.3-1-2-1.7c-0.7-0.7-1.2-1.6-1.5-2.4
			c-0.2-0.4-0.3-0.9-0.4-1.3c-0.1-0.4-0.2-0.8-0.3-1.2c-0.2-0.8-0.5-1.6-0.9-2.3c-0.2-0.4-0.4-0.7-0.6-1c-0.2-0.3-0.5-0.4-0.7-0.5
			c-0.2,0-0.4,0.1-0.6,0.4c0,0.1-0.1,0.2-0.1,0.2c0,0,0,0,0,0l0,0.1c0,0.2,0,0.4,0,0.6c0,1.6,0.3,3.4,0.5,5.1
			c0.2,1.7,0.5,3.4,0.8,5.1c0.6,3.4,1.1,6.8,1.7,10.2l0.4,2.6c0,0.4,0.1,0.9,0.1,1.3l0,1.4c-0.2,1.8-0.5,3.5-1,5.2
			c-0.9,3.4-2.1,6.6-3.4,9.8c-2.5,6.4-5.5,12.7-8.3,19l0,0l0-0.6c1.2,2.5,2.6,5,4.3,7.3c1.7,2.3,3.6,4.3,5.9,5.9
			c1.1,0.8,2.4,1.4,3.7,1.7c1.3,0.4,2.7,0.5,4,0.3c0.7,0,1.3-0.2,2-0.4c0.6-0.2,1.3-0.4,1.9-0.8c1.2-0.6,2.4-1.4,3.5-2.2l0,0
			c0.3-0.3,0.8-0.2,1.1,0.1c0.3,0.3,0.2,0.8-0.1,1.1c-1.2,0.9-2.4,1.8-3.8,2.4c-0.7,0.4-1.4,0.6-2.1,0.9c-0.7,0.2-1.5,0.4-2.3,0.5
			c-1.5,0.2-3.1,0-4.6-0.4c-1.5-0.4-2.9-1.1-4.1-1.9c-2.5-1.7-4.6-3.9-6.3-6.2c-1.8-2.4-3.2-4.9-4.5-7.6c-0.1-0.2-0.1-0.4,0-0.6l0,0
			l0,0c2.8-6.3,5.9-12.5,8.5-18.9c1.3-3.2,2.5-6.4,3.4-9.7c0.5-1.6,0.8-3.3,1-4.9l0-1.2c0-0.4-0.1-0.8-0.1-1.3l-0.3-2.5
			c-0.5-3.4-1.1-6.8-1.6-10.2c-0.3-1.7-0.5-3.4-0.8-5.1c-0.2-1.7-0.5-3.4-0.5-5.2c0-0.2,0-0.5,0.1-0.7l0-0.2c0-0.1,0.1-0.2,0.1-0.3
			c0.1-0.2,0.1-0.2,0.2-0.4c0.2-0.2,0.4-0.4,0.6-0.6c0.3-0.2,0.6-0.3,0.9-0.2c0.7,0.1,1.1,0.5,1.5,0.8c0.3,0.4,0.6,0.8,0.8,1.2
			c0.4,0.8,0.7,1.7,1,2.5c0.1,0.4,0.2,0.9,0.4,1.3c0.1,0.4,0.2,0.8,0.4,1.2c0.3,0.8,0.7,1.4,1.2,1.9c0.5,0.5,1.3,0.9,2,1.6
			c1.4,1.3,2.2,3.1,2.8,4.7c0.1,0.4-0.1,0.8-0.5,1C212.4,144.4,212,144.1,211.8,143.7C211.8,143.7,211.8,143.7,211.8,143.7
			L211.8,143.7z"/>
	</g>
	<g>
		<path class="st6" d="M209.2,136.4c0.9-3.2,1.9-6.3,3-9.5c1.1-3.1,2.2-6.2,3.7-9.3c0.2-0.4,0.4-0.8,0.6-1.1c0.2-0.4,0.5-0.7,1-1.1
			c0.1-0.1,0.3-0.2,0.5-0.2c0.3,0,0.5,0.1,0.7,0.2c0.3,0.3,0.4,0.5,0.4,0.8c0.1,0.5,0.2,0.9,0.2,1.3c0.1,1.7,0.1,3.4,0,5
			c-0.2,3.3-0.5,6.6-0.8,9.9c0,0.4-0.4,0.7-0.8,0.7s-0.7-0.4-0.7-0.8c0,0,0,0,0-0.1l0,0c0.6-3.2,1-6.5,1.2-9.8
			c0.1-1.6,0.2-3.3,0.1-4.9c0-0.4-0.1-0.8-0.2-1.1c0-0.2-0.1-0.3-0.1-0.3c0,0,0.1,0,0.1,0c0,0,0,0,0,0c-0.2,0.1-0.4,0.4-0.6,0.8
			c-0.2,0.3-0.4,0.7-0.6,1c-1.4,2.9-2.5,6-3.5,9.2c-1,3.1-1.9,6.3-2.6,9.5c-0.1,0.4-0.5,0.7-0.9,0.6
			C209.3,137.3,209.1,136.9,209.2,136.4C209.2,136.5,209.2,136.5,209.2,136.4z"/>
	</g>
	<g>
		<path class="st6" d="M221.3,134.2c0.9-3.1,1.8-6.2,2.5-9.4c0.4-1.6,0.7-3.2,0.9-4.7c0.2-1.6,0.5-3.2,0.3-4.7
			c0-0.4-0.1-0.7-0.3-0.9c-0.1-0.1-0.1-0.1-0.1-0.1c0,0-0.1,0-0.2,0.1c-0.4,0.3-0.9,1.1-1.2,1.8c-0.7,1.4-1.2,2.9-1.7,4.5
			c-1,3.1-1.9,6.2-2.8,9.3c-0.1,0.4-0.5,0.6-0.9,0.5c-0.4-0.1-0.6-0.5-0.5-0.9c0,0,0,0,0,0c1-3.1,2-6.2,3.1-9.3
			c0.6-1.5,1.1-3.1,1.9-4.6c0.2-0.4,0.4-0.7,0.6-1.1c0.3-0.4,0.5-0.7,0.9-1.1c0.2-0.2,0.6-0.3,0.9-0.3c0.4,0,0.7,0.3,0.9,0.5
			c0.3,0.5,0.4,1,0.5,1.4c0.2,1.7-0.1,3.4-0.3,5c-0.2,1.6-0.6,3.2-0.9,4.8c-0.7,3.2-1.4,6.4-2.2,9.5c-0.1,0.4-0.5,0.6-0.9,0.5
			S221.2,134.7,221.3,134.2C221.3,134.3,221.3,134.2,221.3,134.2z"/>
	</g>
	<g>
		<path class="st6" d="M221.5,134.2c1.1-2.6,2.4-5.1,3.9-7.5c0.8-1.2,1.6-2.4,2.5-3.5c0.9-1.1,1.8-2.2,3.2-3
			c0.2-0.1,0.4-0.2,0.6-0.2c0.2,0,0.6,0,0.8,0.2c0.2,0.2,0.3,0.5,0.3,0.8c0,0.2,0,0.4-0.1,0.6c-0.2,0.8-0.4,1.4-0.7,2.1
			c-0.6,1.3-1.2,2.6-1.8,3.8c-0.6,1.3-1.2,2.5-1.8,3.8c-0.5,1.3-1.1,2.6-1.1,3.8l-1.1-0.4l0,0c1.2-1.5,2.4-2.9,3.7-4.2
			c0.7-0.7,1.4-1.3,2.2-1.8c0.8-0.5,1.7-1.1,2.8-1.1c0.3,0,0.6,0.1,0.9,0.3c0.3,0.2,0.5,0.6,0.5,0.9c0,0.7-0.4,1.1-0.7,1.5
			c-0.6,0.8-1.3,1.4-1.9,2.1c-1.3,1.3-2.6,2.6-3.5,4.1c-1,1.5-1.7,3.1-2,4.9c-0.4,1.8-0.9,3.6-1.4,5.4c-0.6,1.8-1.2,3.5-2,5.3
			c-0.4,0.9-0.9,1.7-1.4,2.5c-0.6,0.8-1.3,1.6-2.5,1.9c-0.3,0.1-0.7-0.1-0.8-0.5c-0.1-0.3,0.1-0.7,0.5-0.8c0,0,0,0,0,0l0,0
			c0.6-0.1,1.3-0.7,1.8-1.4c0.5-0.7,1-1.5,1.4-2.3c0.8-1.6,1.5-3.3,2-5.1c0.6-1.7,1.1-3.5,1.5-5.3c0.3-1.8,1.1-3.7,2.1-5.3
			c1.1-1.6,2.4-3,3.7-4.3c0.7-0.7,1.3-1.3,1.9-2c0.3-0.3,0.5-0.7,0.5-0.9c0-0.2-0.2-0.3-0.5-0.3c-0.7,0-1.5,0.4-2.2,0.9
			c-0.7,0.5-1.4,1.1-2,1.8c-1.3,1.3-2.4,2.8-3.4,4.2l0,0l0,0.1c-0.2,0.3-0.6,0.3-0.9,0.1c-0.2-0.1-0.2-0.4-0.2-0.6
			c0.2-1.6,0.9-2.8,1.5-4.1c0.6-1.3,1.3-2.5,1.9-3.8c0.6-1.2,1.3-2.5,1.8-3.7c0.3-0.6,0.5-1.3,0.7-1.9c0.1-0.3,0-0.6,0-0.6
			c0,0-0.3,0-0.5,0.1c-1.1,0.6-2,1.7-2.9,2.8c-0.9,1.1-1.6,2.2-2.3,3.4c-1.4,2.4-2.6,4.9-3.5,7.5c-0.1,0.3-0.5,0.5-0.8,0.4
			C221.5,134.9,221.3,134.5,221.5,134.2C221.5,134.2,221.5,134.2,221.5,134.2z"/>
	</g>
	<path class="st27" d="M218.8,201.5c0,0-0.1-29.8,3.1-46"/>
	<path class="st6" d="M139.5,101.8c-17.2,3.2-23.6-10.3-10.9-17.9c0,0,0.1,8.8,9.9,5.7c9.8-3.1,16.1-0.2,15.7,7.4c0,0,7.4,1.3,9,6.5
		c0.9,2.8-0.9,13.9-13,22.8c0,0-7.5-3.9-7.4-5.8c0.1-2,2.8-6.5,2.8-6.5S138.2,112.7,139.5,101.8z"/>
	<g>
		<path class="st6" d="M156.7,94.4c-0.1,0.6-0.3,1.2-0.6,1.7c-0.2,0.3-0.3,0.6-0.6,0.8c-0.3,0.2-0.6,0.5-1,0.6l0,0
			c-0.3,0.1-0.7-0.2-0.8-0.5c-0.1-0.3,0.2-0.7,0.5-0.8c0,0,0.1,0,0.1,0c0.3,0,0.7-0.3,0.9-0.7c0.3-0.4,0.5-0.9,0.7-1.4l0,0
			c0.1-0.2,0.3-0.4,0.6-0.3C156.6,94,156.7,94.2,156.7,94.4z"/>
	</g>
	<g>
		<path class="st6" d="M158.7,95.9c-0.6,0.5-1.3,0.8-2,1.2c-0.4,0.2-0.7,0.3-1.2,0.4c-0.4,0.1-0.9,0.1-1.4,0l0,0
			c-0.3-0.1-0.6-0.4-0.5-0.7s0.4-0.6,0.7-0.5c0,0,0.1,0,0.1,0c0.5,0.2,1.2,0.1,1.9-0.1c0.7-0.2,1.3-0.5,2-0.8l0,0
			c0.2-0.1,0.4,0,0.5,0.1C158.9,95.6,158.8,95.8,158.7,95.9z"/>
	</g>
	<g>
		<path class="st4" d="M142.8,120.4c5.5-5.2,11.8,0.8,9.4,6.5c-2,4.8-9,2.2-9,2.2"/>
		<path class="st6" d="M142.6,120.2c0.9-0.8,1.8-1.5,2.9-1.9c1.1-0.4,2.4-0.4,3.5,0c2.3,0.8,3.9,3.1,4.1,5.5
			c0.1,1.2-0.1,2.4-0.6,3.5c-0.5,1.1-1.5,2.1-2.6,2.5c-1.1,0.5-2.3,0.5-3.5,0.4c-1.2-0.1-2.3-0.4-3.4-0.8c-0.2-0.1-0.3-0.3-0.3-0.6
			c0.1-0.2,0.3-0.3,0.5-0.3l0,0c1,0.3,2.1,0.5,3.1,0.6c1.1,0.1,2.1,0,3.1-0.4c1.9-0.7,2.7-3,2.6-5c-0.2-2-1.5-4-3.4-4.7
			c-1-0.4-2-0.4-3-0.1c-1,0.2-1.9,0.9-2.7,1.6l0,0c-0.1,0.1-0.4,0.1-0.5-0.1C142.5,120.5,142.5,120.3,142.6,120.2z"/>
	</g>
	<g>
		<path class="st6" d="M143.6,123.9c0.3-0.5,0.6-0.9,1-1.2c0.4-0.3,0.8-0.6,1.3-0.8c0.5-0.2,1-0.3,1.5-0.4c0.5-0.1,1,0,1.5,0.1
			c0.2,0,0.3,0.2,0.3,0.4c0,0.2-0.2,0.3-0.3,0.3l0,0c-0.4,0-0.9,0.1-1.3,0.2c-0.4,0.1-0.8,0.2-1.2,0.4c-0.4,0.2-0.7,0.4-1.1,0.6
			c-0.3,0.3-0.6,0.6-0.9,0.9l0,0c-0.1,0.2-0.4,0.2-0.6,0.1C143.6,124.3,143.5,124,143.6,123.9z"/>
	</g>
	<g>
		<path class="st6" d="M128.6,127.2c0.2-0.1,0.5-0.3,0.9-0.4c0.4-0.1,0.5-0.1,0.8-0.2c0.5-0.1,0.9-0.3,1.3-0.5
			c0.9-0.4,1.6-1,2.3-1.7c0.4-0.3,0.7-0.7,1.2-1c0.3-0.2,0.7-0.1,1,0c0.3,0.2,0.5,0.4,0.6,0.7c0.2,0.5,0.3,1,0.4,1.6
			c0,0.5,0,1,0,1.5c-0.1,1-0.3,2-0.9,3c-0.3,0.5-0.6,0.9-1.2,1.3c-0.3,0.1-0.6,0.3-0.9,0.3c-0.2,0-0.3,0-0.5-0.1
			c-0.2,0-0.3-0.1-0.4-0.2c-1-0.7-1.5-1.5-2.1-2.3c-0.3-0.4-0.6-0.7-1-1c-0.2-0.1-0.3-0.3-0.5-0.4c-0.1-0.1-0.2-0.1-0.4-0.2
			C128.8,127.5,128.7,127.3,128.6,127.2z M129.1,127.2c0.1,0,0.2-0.1,0.3-0.1c0-0.1,0.2,0,0.3,0.1c0.3,0.1,0.5,0.3,0.7,0.4
			c0.4,0.3,0.8,0.7,1.1,1c0.7,0.7,1.3,1.6,2,2c0.3,0.2,0.6,0.1,0.9,0c0.3-0.2,0.6-0.5,0.8-0.9c0.4-0.8,0.7-1.7,0.9-2.6
			c0.1-0.9,0.2-1.9-0.1-2.7c-0.1-0.2-0.2-0.3-0.3-0.4c-0.2-0.1-0.3-0.1-0.4,0c-0.3,0.2-0.7,0.6-1.1,0.9c-0.7,0.7-1.6,1.3-2.5,1.7
			c-0.5,0.2-0.9,0.4-1.4,0.6c-0.2,0.1-0.5,0.2-0.7,0.2C129.6,127.3,129.4,127.2,129.1,127.2z"/>
	</g>
	<g>
		<path class="st6" d="M131,113.3c-0.1,1.1-0.6,2.1-1.1,3c-0.5,0.9-1.1,1.7-1.7,2.6c-0.6,0.8-1.2,1.7-1.3,2.4c0,0.4,0.1,0.7,0.3,1
			c0.2,0.3,0.6,0.5,1,0.7l0.1,0c0.2,0.1,0.3,0.3,0.2,0.5c-0.1,0.2-0.2,0.2-0.4,0.2c-0.6,0-1.2-0.2-1.7-0.7c-0.5-0.4-0.7-1.2-0.7-1.8
			l0.1-0.5c0-0.2,0.1-0.3,0.2-0.5c0.1-0.3,0.3-0.5,0.4-0.7c0.3-0.5,0.6-0.9,0.9-1.3c0.6-0.8,1.2-1.6,1.8-2.4c0.5-0.8,1-1.7,1.2-2.6
			l0,0c0-0.2,0.2-0.3,0.4-0.3C130.9,112.9,131,113.1,131,113.3z"/>
	</g>
	<ellipse class="st6" cx="138.1" cy="117.8" rx="0.9" ry="1"/>
	<ellipse class="st6" cx="126.1" cy="115.8" rx="0.9" ry="1"/>
	<path class="st6" d="M136.6,108.1c0.2-2.3,4.8-0.4,4.7,0.5C141.1,109.5,136.4,109.8,136.6,108.1z"/>
	<path class="st6" d="M125.7,109.3c-0.3-1.2,2.8-1.8,3.1-0.1C129.2,110.9,126,110.2,125.7,109.3z"/>
	<g>
		<path class="st6" d="M124.2,96.9c0.2,4.5,0.8,8.9,0.5,13.5c-0.1,1.1-0.2,2.3-0.4,3.4c-0.2,1.1-0.6,2.2-1,3.3
			c-0.8,2.1-1.8,4.1-2.2,6.3c-0.2,1.1-0.3,2.1-0.3,3.2c0.1,1.1,0.2,2.1,0.5,3.2c0.5,2.1,1.3,4.1,2.9,5.5c1.6,1.4,3.7,2,5.8,2.3
			c2.1,0.2,4.4,0.1,6.5-0.3l0,0c0.2,0,0.4,0.1,0.5,0.3c0,0.2-0.1,0.4-0.3,0.5c-2.2,0.6-4.5,0.8-6.8,0.6c-2.3-0.2-4.7-0.9-6.5-2.4
			c-0.9-0.8-1.7-1.8-2.2-2.9c-0.3-0.5-0.5-1.1-0.7-1.6c-0.2-0.5-0.3-1.1-0.5-1.7c-0.3-1.1-0.4-2.3-0.4-3.5c0-1.2,0.1-2.3,0.4-3.5
			c0.5-2.3,1.6-4.3,2.4-6.4c0.4-1,0.8-2.1,1-3.1c0.2-1.1,0.3-2.2,0.4-3.3c0.2-4.4-0.4-8.9-0.8-13.3c0-0.4,0.2-0.7,0.6-0.7
			S124.2,96.5,124.2,96.9C124.2,96.9,124.2,96.9,124.2,96.9z"/>
	</g>
	<circle class="st28" cx="137" cy="117.1" r="5.3"/>
	<circle class="st28" cx="124.4" cy="114.7" r="4.8"/>
	<g>
		<path class="st4" d="M197,179.7c-4.7-0.1-9,11.4-8.9,18.3c0.1,7,7.8,15.3,19.1,16.8s13.6-6.6,14.1-13.3c0.5-6.8-2.5-8.6-2.5-8.6
			v6.3c0,0-4.9,6.1-15.9-1.8c-5.2-3.7-7.7-10-7.8-13L197,179.7z"/>
		<path class="st6" d="M196.5,180.1c0,0.1,0,0.3,0.1,0.3c0,0,0.1,0,0,0l-0.1,0c-0.2,0-0.3,0.1-0.5,0.1c-0.3,0.1-0.6,0.3-0.9,0.6
			c-0.6,0.5-1.1,1.1-1.6,1.7c-0.9,1.3-1.7,2.8-2.3,4.3c-1.2,3-2,6.3-2.2,9.6c-0.3,3.2,1,6.3,2.9,8.9c1,1.3,2.1,2.4,3.4,3.5
			c1.3,1,2.6,1.9,4.1,2.6c2.9,1.5,6.2,2.3,9.4,2.6c3.2,0.3,6.5-0.6,8.6-2.9c2.1-2.4,2.8-5.7,3.2-9c0.2-1.6,0.2-3.3-0.1-4.9
			c-0.1-0.8-0.4-1.5-0.7-2.3c-0.3-0.7-0.8-1.4-1.3-1.7l0,0l1-0.5v6.3v0c0,0.1-0.1,0.3-0.1,0.4c-2.2,2.3-5.4,2.8-8.2,2.3
			c-2.8-0.5-5.4-1.9-7.7-3.5c-2.4-1.5-4.4-3.7-5.9-6c-0.8-1.2-1.4-2.5-1.9-3.8c-0.5-1.3-0.9-2.7-1-4.2c0-0.1,0-0.2,0-0.2l0,0
			C195.1,182.7,195.8,181.5,196.5,180.1z M197.5,179.4c-0.5,1.7-1.1,3.5-1.8,5.2l0-0.2c0.1,1.2,0.4,2.5,0.9,3.8
			c0.5,1.2,1.1,2.4,1.8,3.6c1.4,2.2,3.3,4.2,5.5,5.7c2.2,1.5,4.6,2.8,7.2,3.3c1.3,0.2,2.6,0.2,3.8-0.1c1.2-0.3,2.4-0.9,3.2-1.8
			l-0.1,0.4v-6.3v0c0-0.3,0.3-0.6,0.6-0.6c0.1,0,0.2,0,0.3,0.1l0,0c0.9,0.7,1.3,1.4,1.8,2.3c0.4,0.8,0.6,1.7,0.8,2.6
			c0.3,1.7,0.3,3.5,0.2,5.2c-0.1,1.7-0.4,3.4-0.9,5.1c-0.5,1.7-1.3,3.3-2.5,4.7c-1.2,1.4-2.8,2.4-4.5,2.9c-1.7,0.6-3.5,0.6-5.3,0.6
			c-3.5-0.3-6.9-1.1-10-2.7c-1.6-0.8-3-1.7-4.4-2.8c-1.4-1.1-2.6-2.4-3.7-3.7c-1-1.4-1.9-3-2.5-4.7c-0.6-1.7-0.8-3.6-0.7-5.3
			c0.3-3.5,1.1-6.9,2.4-10c0.7-1.6,1.5-3.1,2.6-4.6c0.5-0.7,1.2-1.4,1.9-1.9c0.4-0.3,0.8-0.5,1.3-0.7c0.2-0.1,0.5-0.2,0.7-0.2l0.2,0
			c0,0,0.2,0,0.4,0C197.1,179.1,197.4,179.2,197.5,179.4z"/>
	</g>
	<path class="st0" d="M75.8,201.2c1.5-0.6,1.9-2.9,1-5.3c-0.9-2.3-2.9-3.7-4.3-3.2c-1.5,0.6-1.8,2.4-0.8,4.7
		c0.7,1.7,1.7,2.8,3.2,2.9"/>
	<path class="st11" d="M70.2,190.8c1.8-1,4.5,0.5,6,3.4c1.6,2.8,1.4,5.9-0.4,6.9c-1.8,1-3.8-0.2-5.4-3c-1.1-2.1-1.4-4-0.3-5.6"/>
	<path class="st29" d="M18.3,201.3c2.3,0.6,5.1,1.1,5-0.1c0-1.2-3.2-2.6-5.9-3.4C13.9,196.8,14.3,200.3,18.3,201.3z"/>
	<path class="st30" d="M17.8,198.7c2.8,0.7,6.2,1.4,6.2-0.1c0-1.5-4-3.2-7.3-4.2C12.3,193.1,12.8,197.4,17.8,198.7z"/>
	<path class="st31" d="M17.3,195.2c3.4,0.9,7.6,1.7,7.5-0.2S20,191.2,16,190C10.6,188.4,11.2,193.7,17.3,195.2z"/>
	<path class="st32" d="M16.3,190.6c3.2,0.8,7,1.5,6.9-0.2c0-1.7-4.4-3.6-8.2-4.7C10.1,184.4,10.7,189.2,16.3,190.6z"/>
	<g>
		<path class="st4" d="M253.5,188.8l80.4,22.3c4.5,1.3,7.8,5.5,7.8,10.1V283c0,3.2-3,5.3-6.1,4.3l-80.6-26.2
			c-4.3-1.4-7.4-5.5-7.4-10v-58C247.6,190.1,250.4,187.9,253.5,188.8z"/>
		<path class="st6" d="M253.6,188.3l80.1,22c3.5,0.9,6.6,3.6,7.9,7c0.3,0.9,0.6,1.8,0.7,2.7c0.1,0.9,0.1,1.8,0.1,2.7l0,5.2l0,20.8
			l0,20.8l0,10.4l0,2.6l0,0.7c0,0.2,0,0.5-0.1,0.7c-0.1,0.5-0.2,1-0.4,1.4c-0.8,1.9-2.8,3.1-4.8,3.1c-0.5,0-1-0.1-1.5-0.2
			c-0.5-0.1-0.8-0.3-1.3-0.4l-2.5-0.8l-4.9-1.6l-9.9-3.2l-19.7-6.4l-39.5-12.9l-2.5-0.8c-0.8-0.2-1.7-0.6-2.5-1
			c-1.6-0.9-3-2.1-4-3.7c-1-1.5-1.7-3.3-1.8-5.1c-0.1-0.9,0-1.8,0-2.7l0-2.6l0.1-20.8l0.1-20.8l0-10.4c0-0.9-0.1-1.7,0.1-2.7
			c0.2-0.9,0.5-1.8,1.2-2.5C249.7,188.4,251.8,187.8,253.6,188.3z M253.4,189.2c-1.5-0.4-3.2,0-4.3,1.2c-0.5,0.6-0.9,1.3-1,2.1
			c-0.1,0.7,0,1.7-0.1,2.5l0,10.4l0.1,20.8l0.1,20.8l0,2.6c0,0.9,0,1.7,0.1,2.5c0.2,1.6,0.7,3.2,1.7,4.5c0.9,1.4,2.2,2.5,3.6,3.3
			c0.7,0.4,1.4,0.7,2.3,0.9l2.5,0.8l39.5,12.8l19.8,6.4l9.9,3.2l4.9,1.6l2.5,0.8c0.4,0.1,0.9,0.3,1.2,0.4c0.4,0.1,0.7,0.1,1.1,0.1
			c1.5,0,2.9-0.9,3.4-2.2c0.2-0.3,0.2-0.7,0.3-1c0-0.2,0-0.4,0-0.5l0-0.6l0-2.6l0-10.4l0-20.8l0-20.8l0-5.2c0-0.9,0-1.7-0.1-2.5
			c-0.1-0.8-0.3-1.6-0.6-2.3c-1.1-3-3.8-5.4-7-6.2L253.4,189.2z"/>
	</g>
	<g>
		<path class="st4" d="M252.4,187.9l80.4,22.3c4.5,1.3,7.8,5.5,7.8,10.1v61.8c0,3.2-3,5.3-6.1,4.3l-80.6-26.2
			c-4.3-1.4-7.4-5.5-7.4-10v-58C246.5,189.1,249.4,187,252.4,187.9z"/>
		<path class="st6" d="M252.5,187.4l80.1,22c3.5,0.9,6.6,3.6,7.9,7c0.3,0.9,0.6,1.8,0.7,2.7c0.1,0.9,0.1,1.8,0.1,2.7l0,5.2l0,20.8
			l0,20.8l0,10.4l0,2.6l0,0.7c0,0.2,0,0.5-0.1,0.7c-0.1,0.5-0.2,1-0.4,1.4c-0.8,1.9-2.8,3.1-4.8,3.1c-0.5,0-1-0.1-1.5-0.2
			c-0.5-0.1-0.8-0.3-1.3-0.4l-2.5-0.8l-4.9-1.6l-9.9-3.2l-19.7-6.4l-39.5-12.9l-2.5-0.8c-0.8-0.2-1.7-0.6-2.5-1
			c-1.6-0.9-3-2.1-4-3.7c-1-1.5-1.7-3.3-1.8-5.1c-0.1-0.9,0-1.8,0-2.7l0-2.6l0.1-20.8l0.1-20.8l0-10.4c0-0.9-0.1-1.7,0.1-2.7
			c0.2-0.9,0.5-1.8,1.2-2.5C248.6,187.4,250.7,186.9,252.5,187.4z M252.3,188.3c-1.5-0.4-3.2,0-4.3,1.2c-0.5,0.6-0.9,1.3-1,2.1
			c-0.1,0.7,0,1.7-0.1,2.5l0,10.4l0.1,20.8l0.1,20.8l0,2.6c0,0.9,0,1.7,0.1,2.5c0.2,1.6,0.7,3.2,1.7,4.5c0.9,1.4,2.2,2.5,3.6,3.3
			c0.7,0.4,1.4,0.7,2.3,0.9l2.5,0.8l39.5,12.8l19.8,6.4l9.9,3.2l4.9,1.6l2.5,0.8c0.4,0.1,0.9,0.3,1.2,0.4c0.4,0.1,0.7,0.1,1.1,0.1
			c1.5,0,2.9-0.9,3.4-2.2c0.2-0.3,0.2-0.7,0.3-1c0-0.2,0-0.4,0-0.5l0-0.6l0-2.6l0-10.4l0-20.8l0-20.8l0-5.2c0-0.9,0-1.7-0.1-2.5
			c-0.1-0.8-0.3-1.6-0.6-2.3c-1.1-3-3.8-5.4-7-6.2L252.3,188.3z"/>
	</g>
	<path class="st8" d="M256.3,192.2l74.8,20.8c4.2,1.2,7.3,5.1,7.3,9.4v57.5c0,3-2.8,5-5.7,4l-75-24.4c-4-1.3-6.9-5.1-6.9-9.3v-54
		C250.8,193.4,253.5,191.4,256.3,192.2z"/>
	<g>
		<g>
			<g>
				<path class="st4" d="M306.8,233.9c-0.2,2.1-7.4,20.3-8.5,20.8c-1.1,0.4-27.1-14.4-28.9-15.8c-1.8-1.4-2.5-2.8-0.9-6.9
					s5.7-14.8,6.2-15.9c0.5-1.2,0.8-2.3,4.1-0.6s24.5,13,26.5,14.8C307,231.9,306.9,232.8,306.8,233.9z"/>
				<g>
					<path class="st15" d="M307.3,233.9c-0.1,0.8-0.3,1.3-0.5,1.9l-0.6,1.8l-1.3,3.5c-0.8,2.4-1.7,4.7-2.7,7
						c-0.5,1.2-0.9,2.3-1.5,3.5c-0.3,0.6-0.5,1.1-0.8,1.7c-0.1,0.3-0.3,0.6-0.5,0.9c-0.1,0.1-0.2,0.3-0.3,0.4
						c-0.1,0.2-0.2,0.3-0.4,0.5c0,0-0.1,0.1-0.2,0.1c-0.1,0-0.1,0.1-0.3,0.1c-0.1,0-0.3,0-0.3,0l-0.1,0c-0.2,0-0.3-0.1-0.3-0.1
						c-0.2-0.1-0.3-0.1-0.5-0.2c-0.3-0.1-0.6-0.2-0.9-0.4c-0.6-0.3-1.1-0.5-1.7-0.8c-1.1-0.6-2.2-1.2-3.3-1.8
						c-4.4-2.4-8.7-4.9-13-7.5c-2.1-1.3-4.3-2.6-6.4-3.9l-1.6-1c-0.5-0.3-1.1-0.7-1.5-1.2c-0.2-0.2-0.4-0.5-0.7-0.7
						c-0.2-0.3-0.5-0.5-0.6-0.9c-0.3-0.7-0.3-1.4-0.2-2c0.1-1.3,0.6-2.5,1-3.7l1.4-3.5l2.7-7l1.4-3.5c0.2-0.6,0.5-1.2,0.7-1.7
						c0.1-0.3,0.3-0.6,0.5-0.9c0.2-0.3,0.7-0.5,1-0.5c0.8-0.1,1.4,0.2,2,0.4c0.6,0.2,1.2,0.5,1.7,0.8l3.3,1.7
						c4.4,2.3,8.9,4.6,13.2,7c2.2,1.2,4.4,2.4,6.5,3.7c0.5,0.3,1.1,0.6,1.6,1c0.3,0.2,0.5,0.3,0.8,0.5c0.3,0.2,0.6,0.4,0.8,0.7
						c0.5,0.5,0.9,1,1.2,1.7c0.2,0.4,0.2,0.8,0.2,1.1C307.4,233.3,307.3,233.6,307.3,233.9z M306.3,233.9c0.1-0.6-0.1-1.1-0.3-1.5
						c-0.2-0.4-0.5-0.9-0.9-1.3c-0.2-0.2-0.4-0.4-0.6-0.5c-0.2-0.2-0.5-0.3-0.7-0.5c-0.5-0.3-1-0.7-1.6-1c-2.1-1.3-4.3-2.5-6.5-3.8
						c-4.3-2.4-8.7-4.9-13.1-7.2l-3.3-1.8c-0.6-0.3-1.1-0.6-1.7-0.8c-0.5-0.2-1.1-0.4-1.6-0.4c-0.5,0-0.7,0.4-1,1
						c-0.2,0.6-0.5,1.1-0.7,1.7l-1.4,3.5l-2.7,7l-1.3,3.5c-0.4,1.2-0.9,2.3-1,3.5c-0.1,0.6,0,1.2,0.2,1.7c0.1,0.3,0.2,0.5,0.3,0.8
						c0.2,0.2,0.4,0.4,0.6,0.6c0.4,0.4,0.9,0.7,1.5,1l1.6,0.9c2.2,1.2,4.3,2.4,6.5,3.6c4.4,2.4,8.8,4.7,13.2,7
						c1.1,0.6,2.2,1.1,3.3,1.7c0.6,0.3,1.1,0.5,1.7,0.8c0.3,0.1,0.6,0.2,0.8,0.4c0.1,0.1,0.3,0.1,0.4,0.1c0.1,0,0.1,0,0.1,0
						c0,0,0,0,0,0c0,0-0.1,0-0.2,0c-0.1,0-0.1,0-0.2,0.1l-0.1,0c0,0,0.1-0.1,0.1-0.2l0.2-0.4c0.1-0.3,0.3-0.5,0.4-0.8
						c0.3-0.5,0.5-1.1,0.8-1.7l1.5-3.4c1-2.3,2-4.6,2.9-6.9c0.5-1.2,0.9-2.3,1.3-3.5l0.6-1.8C306,235,306.3,234.3,306.3,233.9z"/>
				</g>
			</g>
			<g>
				<path class="st15" d="M306.9,233.3c-3.6,0.9-7.3,1.9-11,2.6c-1.9,0.3-3.7,0.6-5.7,0.7c-1,0.1-1.9,0.1-2.9,0
					c-0.5-0.1-1-0.1-1.5-0.3c-0.5-0.1-1-0.4-1.4-0.7c-1.7-1.1-2.9-2.8-3.8-4.5c-1-1.7-1.7-3.5-2.3-5.3c-1.2-3.6-2-7.3-2.5-11.1
					l0.4-0.1c0.8,3.7,1.7,7.3,3,10.8c0.7,1.7,1.4,3.4,2.3,5c0.9,1.6,2,3.1,3.5,4c0.7,0.5,1.5,0.6,2.4,0.8c0.9,0.1,1.8,0.1,2.7,0.1
					c1.8-0.1,3.7-0.3,5.5-0.6c3.7-0.5,7.4-1.3,11.1-1.9L306.9,233.3z"/>
			</g>
			<g>
				<path class="st15" d="M297.7,254.8c-0.4-0.2-0.4-0.6-0.5-0.9l-0.2-1l-0.5-1.9l-1-3.8c-0.7-2.5-1.4-5-2.3-7.5
					c-0.1-0.2,0-0.3,0.2-0.4c0.2-0.1,0.3,0,0.4,0.2c0.5,1.2,1,2.4,1.5,3.7c0.4,1.2,0.8,2.5,1.2,3.8c0.4,1.3,0.7,2.5,1.1,3.8l0.5,1.9
					l0.2,1c0.1,0.3,0.2,0.6-0.1,1C298.1,254.8,297.9,254.9,297.7,254.8L297.7,254.8z"/>
			</g>
			<g>
				<path class="st15" d="M278.5,231.5c-1.9,0.4-3.7,1-5.4,1.8c-1.7,0.8-3.3,1.8-4.6,3.2l0,0c-0.2,0.2-0.6,0.2-0.8,0
					c-0.2-0.2-0.2-0.6,0-0.8c0,0,0,0,0,0c1.5-1.4,3.3-2.4,5.1-3.2c1.8-0.7,3.7-1.3,5.7-1.6c0.2,0,0.3,0.1,0.4,0.3
					C278.8,231.3,278.7,231.5,278.5,231.5L278.5,231.5z"/>
			</g>
		</g>
		<g>
			<path class="st1" d="M278.3,208.4c1.8,1.1,2.9,2.8,3.2,5c0.4,2.6-0.5,4.5-2.2,5.9c-1.9,1.6-4.1,2-6.7,1.2
				c-2.3-0.7-4.3-2.7-4.9-5.4c-0.3-1.4-0.1-2.8,0.4-4c1.1-2.4,3-3.6,5.5-3.9c0.3,0,0.5-0.1,0.8-0.1c0.3,0,0.5-0.2,0.5-0.5
				c0.9,0.1,1.8,0.5,2.7,0.9C277.7,207.9,277.9,208.2,278.3,208.4z M274.9,215.2c-1.1-1.3-2.2-2.6-3.5-3.8c-0.2-0.2-0.5-0.5-0.8-0.7
				c-0.1-0.1-0.3-0.2-0.4-0.1c-0.2,0.1-0.1,0.3,0,0.5c0.2,0.2,0.3,0.5,0.5,0.7c1.2,1.6,2.4,3.1,3.6,4.7c0.4,0.5,0.7,0.9,1.3,1.1
				c0.4,0.1,0.6,0.1,0.7-0.3c0.7-1.4,1.5-2.7,2.4-3.9c0.1-0.1,0.2-0.3,0.2-0.5c0-0.1,0-0.3-0.1-0.4c-0.1-0.1-0.2-0.1-0.3,0
				c-0.1,0.1-0.2,0.2-0.3,0.3c-0.8,1.1-1.8,2-2.5,3.2c0,0-0.1,0.1-0.1,0.1C275.5,215.8,275.2,215.5,274.9,215.2z"/>
			<path class="st15" d="M277.7,207.5c0,0.4,0.1,0.7,0.5,0.9c1.8,1.1,2.9,2.8,3.2,5c0.4,2.6-0.5,4.5-2.2,5.9c-1.9,1.6-4.1,2-6.7,1.2
				c-2.3-0.8-4.3-2.7-4.9-5.4c-0.3-1.4-0.1-2.8,0.4-4c1.1-2.4,3-3.6,5.5-3.9c0.3,0,0.5-0.1,0.8-0.1c0.3,0,0.5-0.2,0.5-0.5
				c-0.9-0.4-1.8-0.3-2.7-0.1c-2.5,0.6-4.4,2.1-5.3,4.7c-1.4,4.2,1,8.9,5.2,10.4c4.6,1.6,9.3-1.1,10-5.8c0.4-2.9-0.6-5.4-2.8-7.5
				c-0.3-0.3-0.6-0.5-0.9-0.7C278.3,207.4,278,207.3,277.7,207.5z"/>
			<path class="st15" d="M275.8,216.1c-0.3-0.3-0.6-0.6-0.8-0.9c-1.1-1.3-2.2-2.6-3.5-3.8c-0.2-0.2-0.5-0.5-0.8-0.7
				c-0.1-0.1-0.3-0.2-0.4-0.1c-0.2,0.1-0.1,0.3,0,0.5c0.1,0.2,0.3,0.5,0.5,0.7c1.2,1.6,2.4,3.1,3.6,4.7c0.4,0.5,0.7,0.9,1.3,1.1
				c0.4,0.1,0.6,0.1,0.7-0.3c0.7-1.4,1.5-2.7,2.4-3.9c0.1-0.1,0.2-0.3,0.2-0.5c0-0.1,0-0.2-0.1-0.4c-0.1-0.1-0.2-0.1-0.3,0
				c-0.1,0.1-0.2,0.2-0.3,0.3c-0.8,1.1-1.8,2-2.5,3.2C275.9,216,275.8,216.1,275.8,216.1z"/>
		</g>
		<path class="st33" d="M309.1,247c0,0,8.1,4.8,11.7,7.6"/>
		<path class="st33" d="M300.7,245.8c0,0,27.6,17.6,40.8,27.2"/>
		<path class="st33" d="M320.4,263.9c3.7,2.4,8.3,5.4,12.9,8.5"/>
		<path class="st33" d="M311.5,258.1c0,0,1.7,1.1,5.2,3.3"/>
	</g>
</g>
</svg>
